<svg xmlns="http://www.w3.org/2000/svg" width="57" height="27.143" viewBox="0 0 57 27.143"><defs><style>.a{fill:#ee405e;}</style></defs><g transform="translate(-4 -100)"><g transform="translate(4 100)"><path className="a" d="M73.881,236a5.881,5.881,0,1,0,5.881,5.881A5.881,5.881,0,0,0,73.881,236Zm0,8.6a2.714,2.714,0,1,1,2.714-2.714A2.714,2.714,0,0,1,73.881,244.6Z" transform="translate(-60.762 -220.619)"/><path className="a" d="M361.881,236a5.881,5.881,0,1,0,5.881,5.881A5.881,5.881,0,0,0,361.881,236Zm0,8.6a2.714,2.714,0,1,1,2.714-2.714A2.714,2.714,0,0,1,361.881,244.6Z" transform="translate(-316.191 -220.619)"/><path className="a" d="M57.539,110.522,46.976,108.6l-8.993-7.461A4.989,4.989,0,0,0,34.821,100H21.573a4.952,4.952,0,0,0-3.886,1.868L11.943,108.6H8.071A4.076,4.076,0,0,0,4,112.667v4.976a4.982,4.982,0,0,0,4.976,4.976H10.01a7.238,7.238,0,1,1,14.217,0H42.582a7.238,7.238,0,1,1,14.217,0h.129A4.076,4.076,0,0,0,61,118.547v-4a4.048,4.048,0,0,0-3.461-4.025ZM23.9,107.238a1.357,1.357,0,0,1-1.357,1.357H16.581a.679.679,0,0,1-.516-1.12l3.949-4.626a1.357,1.357,0,0,1,1.032-.475h1.5a1.357,1.357,0,0,1,1.357,1.357Zm6.786,6.333h-1.81a1.357,1.357,0,1,1,0-2.714h1.81a1.357,1.357,0,1,1,0,2.714Zm10.685-4.943-12.95-.03a1.357,1.357,0,0,1-1.354-1.357v-3.509a1.357,1.357,0,0,1,1.357-1.357h6.508a1.357,1.357,0,0,1,.841.292l6.02,4.75a.679.679,0,0,1-.422,1.212Z" transform="translate(-4 -100)"/></g></g></svg>