<svg xmlns="http://www.w3.org/2000/svg" width="21.921" height="17.796" viewBox="0 0 21.921 17.796"><defs><style>.a{fill:#fff;}</style></defs><g transform="translate(0 -3.522)"><path className="a" d="M19.284,6.483H16.115V6.157A2.636,2.636,0,0,0,13.48,3.522H8.44A2.636,2.636,0,0,0,5.8,6.157v.326H2.635A2.635,2.635,0,0,0,0,9.118v9.565a2.636,2.636,0,0,0,2.635,2.635h16.65a2.636,2.636,0,0,0,2.635-2.635V9.118A2.637,2.637,0,0,0,19.284,6.483Zm-8.325,12.1a4.977,4.977,0,1,1,4.977-4.977A4.982,4.982,0,0,1,10.959,18.584Zm2.635-4.977a2.635,2.635,0,1,1-2.635-2.635A2.639,2.639,0,0,1,13.594,13.607Z"/></g></svg>