<svg xmlns="http://www.w3.org/2000/svg" width="24.26" height="15.983" viewBox="0 0 24.26 15.983"><defs><style>.a{fill:#ee405e;stroke:#000;stroke-linecap:round;stroke-linejoin:round;stroke-width:0;}</style></defs><path className="a" d="M24.092,72.1a.493.493,0,0,0-.433-.3H21.443a.493.493,0,0,0-.433.3,3.589,3.589,0,0,0-.127.449l-1.481-4.1a1.716,1.716,0,0,0-1.609-1.129H6.468a1.716,1.716,0,0,0-1.609,1.129l-1.481,4.1a3.6,3.6,0,0,0-.127-.449.493.493,0,0,0-.433-.3H.6a.493.493,0,0,0-.433.3,2.184,2.184,0,0,0,0,1.682.493.493,0,0,0,.433.3H2.825l-.033.093a1.136,1.136,0,0,0-.778,1.078v7.509a.546.546,0,0,0,.546.546H5.309a.546.546,0,0,0,.546-.546V80.1H18.406v2.659a.546.546,0,0,0,.546.546H21.7a.546.546,0,0,0,.546-.546V75.251a1.137,1.137,0,0,0-.778-1.078l-.034-.093H23.66a.493.493,0,0,0,.433-.3A2.184,2.184,0,0,0,24.092,72.1ZM6.677,69.334H17.583l1.728,4.78H4.95Zm.3,8.148h-2.3a.894.894,0,0,1,0-1.787h2.3a.894.894,0,0,1,0,1.787Zm12.6,0h-2.3a.894.894,0,0,1,0-1.787h2.3a.894.894,0,0,1,0,1.787Z" transform="translate(-0.001 -67.324)"/></svg>