<svg id="Group_1029" data-name="Group 1029" xmlns="http://www.w3.org/2000/svg" width="25.741" height="20.149" viewBox="0 0 25.741 20.149">
  <path id="Path_875" data-name="Path 875" d="M18.8,19.69H6.143L1.9,21.385V10.736h1.6v-1.9H0V24.2l6.509-2.6H20.7V19.557l-1.9-.763Z" transform="translate(0 -4.05)" fill="#fff"/>
  <path id="Path_876" data-name="Path 876" d="M6.245,3.259V15.826H20.219l6.409,2.564V3.259ZM12.4,10.824a1.188,1.188,0,1,1,1.188-1.188A1.187,1.187,0,0,1,12.4,10.824Zm4.064,0a1.188,1.188,0,1,1,1.188-1.188A1.187,1.187,0,0,1,16.468,10.824Zm4,0a1.188,1.188,0,1,1,1.188-1.188A1.188,1.188,0,0,1,20.469,10.824Z" transform="translate(-0.887 -3.259)" fill="#fff"/>
</svg>
