<svg xmlns="http://www.w3.org/2000/svg" width="36.662" height="36.667" viewBox="0 0 36.662 36.667"><defs><style>.a{fill:#ee405e;}</style></defs><g transform="translate(-0.03)"><circle className="a" cx="2.5" cy="2.5" r="2.5" transform="translate(5.701 5.667)"/><path className="a" d="M13.477,13.447A7.877,7.877,0,1,0,.03,7.877a7.825,7.825,0,0,0,2.307,5.57l5.57,5.57ZM3.252,7.877a4.655,4.655,0,1,1,4.655,4.655A4.66,4.66,0,0,1,3.252,7.877Z"/><path className="a" d="M357.751,318.913a5.729,5.729,0,0,0-4.051,9.78l4.051,4.051,4.051-4.051a5.729,5.729,0,0,0-4.051-9.78Z" transform="translate(-326.787 -296.077)"/><path className="a" d="M97.183,242.687a4.77,4.77,0,0,1,4.765-4.765h3.986a4.28,4.28,0,0,0,0-8.561h-4.168v2.148h4.168a2.132,2.132,0,0,1,0,4.264h-3.986a6.913,6.913,0,0,0,0,13.826h11.991v-2.148H101.948A4.77,4.77,0,0,1,97.183,242.687Z" transform="translate(-88.202 -212.937)"/></g></svg>