<svg xmlns="http://www.w3.org/2000/svg" width="50.256" height="43.879" viewBox="0 0 50.256 43.879">
  <g id="give-money" transform="translate(0 -22.509)">
    <g id="Layer_5_58_" transform="translate(0 22.509)">
      <g id="Group_920" data-name="Group 920" transform="translate(0 0)">
        <g id="Group_918" data-name="Group 918" transform="translate(23.678)">
          <path id="Path_785" data-name="Path 785" d="M240.716,72.567c-1.5-.6-1.936-.966-1.936-1.623,0-.526.4-1.141,1.522-1.141a4.226,4.226,0,0,1,1.763.4.554.554,0,0,0,.259.066.523.523,0,0,0,.49-.335l.273-.7a.432.432,0,0,0-.233-.555,10.57,10.57,0,0,0-1.82-.475.094.094,0,0,1-.086-.1l0-1.012a.561.561,0,0,0-.567-.553h-.49a.561.561,0,0,0-.567.553v1.064c0,.082-.088.117-.121.124a2.938,2.938,0,0,0-2.452,2.86c0,1.738,1.437,2.524,2.989,3.114,1.24.487,1.746.981,1.746,1.705,0,.788-.717,1.339-1.743,1.339a6.145,6.145,0,0,1-2.075-.561.554.554,0,0,0-.239-.054.53.53,0,0,0-.5.348l-.261.706a.458.458,0,0,0,.233.573,9.236,9.236,0,0,0,2.2.612c.017,0,.1.033.1.111v1.06a.561.561,0,0,0,.567.553h.506a.561.561,0,0,0,.567-.553V78.977a.105.105,0,0,1,.093-.117,3.074,3.074,0,0,0,2.6-3.015C243.532,74.327,242.69,73.347,240.716,72.567Z" transform="translate(-226.795 -60.303)" fill="#ee405e"/>
          <path id="Path_786" data-name="Path 786" d="M180.45,22.509A13.289,13.289,0,1,0,193.739,35.8,13.289,13.289,0,0,0,180.45,22.509Zm0,23.5A10.209,10.209,0,1,1,190.659,35.8,10.209,10.209,0,0,1,180.45,46.007Z" transform="translate(-167.161 -22.509)" fill="#ee405e"/>
        </g>
        <g id="Group_919" data-name="Group 919" transform="translate(0 27.849)">
          <path id="Path_787" data-name="Path 787" d="M131.255,224.29a33.812,33.812,0,0,1-10.588,3.61c-3.449.541-9.936-.763-9.936-2.3,0-.584,5.69,1.438,9.132.52,2.639-.7,2.265-3.173.829-3.5s-9.789-3.387-13.36-3.493a61.756,61.756,0,0,0-7.846.912c-.689.112-1.12.1-1.163.759-.2,3.062-.594,9.325-.809,12.6,0,.069.092,1,.859.345.84-.716,2.017-1.509,3.106-1.262,1.709.388,16.491,3.1,18.53,2.622,2.917-.678,11.174-5.572,12.757-7.093C135.218,225.645,133.31,223.155,131.255,224.29Z" transform="translate(-83.7 -219.121)" fill="#ee405e"/>
          <path id="Path_788" data-name="Path 788" d="M10.542,222.419,2.8,222.038a1.394,1.394,0,0,0-1.357,1L.033,235.823a.844.844,0,0,0,.818,1.1H9.433a1.143,1.143,0,0,0,1.171-1.043l.943-12.317A1.056,1.056,0,0,0,10.542,222.419ZM5.983,235.225a2.141,2.141,0,1,1,2.141-2.141A2.141,2.141,0,0,1,5.983,235.225Z" transform="translate(0 -221.623)" fill="#ee405e"/>
        </g>
      </g>
    </g>
  </g>
</svg>
