<svg xmlns="http://www.w3.org/2000/svg" width="18" height="19" viewBox="0 0 18 19"><defs><style>.a{fill:#a6a8ac;}.b{fill:#101820;}</style></defs><g transform="translate(-0.183)"><ellipse className="a" cx="9" cy="9.5" rx="9" ry="9.5" transform="translate(0.183)"/><g transform="translate(5.095 5.095)"><path className="b" d="M38.034,272.711a1.548,1.548,0,0,1-1.268-.661,1.547,1.547,0,0,1-2.536,0,1.547,1.547,0,0,1-2.536,0,1.545,1.545,0,0,1-1.694.6v3.335h8.46v-3.335A1.542,1.542,0,0,1,38.034,272.711Z" transform="translate(-29.439 -267.513)"/><path className="b" d="M375.613,29.626l.533,3.053h1.9l-1.067-3.053Z" transform="translate(-368.583 -29.626)"/><path className="b" d="M271,32.679h1.921l-.533-3.053H271Z" transform="translate(-265.928 -29.626)"/><path className="b" d="M140.268,32.679V29.626H138.88l-.533,3.053Z" transform="translate(-135.758 -29.626)"/><path className="b" d="M8.034,32.679l.533-3.053H7.2L6.129,32.679Z" transform="translate(-6.014 -29.626)"/><path className="b" d="M.987,223.779a.988.988,0,0,0,.987-.987v-.035H0v.035A.988.988,0,0,0,.987,223.779Z" transform="translate(0 -219.142)"/><path className="b" d="M137.475,222.792v-.035H135.5v.035a.987.987,0,0,0,1.975,0Z" transform="translate(-132.964 -219.142)"/><path className="b" d="M272.975,222.792v-.035H271v.035a.987.987,0,0,0,1.975,0Z" transform="translate(-265.928 -219.142)"/><path className="b" d="M407.487,223.779a.988.988,0,0,0,.987-.987v-.035H406.5v.035A.988.988,0,0,0,407.487,223.779Z" transform="translate(-398.892 -219.142)"/></g></g></svg>