<svg xmlns="http://www.w3.org/2000/svg" width="22.334" height="22.334" viewBox="0 0 22.334 22.334">
  <path id="linkedin_1_" data-name="linkedin (1)" d="M11.167,0A11.167,11.167,0,1,0,22.334,11.167,11.168,11.168,0,0,0,11.167,0ZM7.922,16.881H5.2V8.7h2.72Zm-1.36-9.3H6.545A1.417,1.417,0,1,1,6.58,4.755a1.418,1.418,0,1,1-.018,2.827Zm11.166,9.3H15.009V12.5c0-1.1-.394-1.85-1.378-1.85a1.489,1.489,0,0,0-1.4.995,1.862,1.862,0,0,0-.089.664v4.569H9.427s.036-7.415,0-8.182h2.72V9.858A2.7,2.7,0,0,1,14.6,8.507c1.789,0,3.131,1.169,3.131,3.683Zm0,0" fill="#a6a8ac"/>
</svg>
