<svg xmlns="http://www.w3.org/2000/svg" width="18.966" height="18.966" viewBox="0 0 18.966 18.966"><defs><style>.a{fill:#a6a8ac;}</style></defs><path className="a" d="M9.483,0a9.483,9.483,0,1,0,9.483,9.483A9.484,9.484,0,0,0,9.483,0ZM6.727,14.336H4.418V7.387h2.31Zm-1.155-7.9H5.558a1.2,1.2,0,1,1,.03-2.4,1.2,1.2,0,1,1-.015,2.4Zm9.482,7.9H12.746V10.619c0-.934-.334-1.571-1.17-1.571a1.264,1.264,0,0,0-1.185.845,1.582,1.582,0,0,0-.076.564v3.88H8.006s.03-6.3,0-6.948h2.309v.984A2.293,2.293,0,0,1,12.4,7.224c1.519,0,2.659.993,2.659,3.127Zm0,0"/></svg>