<svg xmlns="http://www.w3.org/2000/svg" width="24.31" height="24.31" viewBox="0 0 24.31 24.31">
  <g id="phone-call" transform="translate(-0.001 0)">
    <g id="Group_1028" data-name="Group 1028" transform="translate(0.001 0)">
      <path id="Path_874" data-name="Path 874" d="M22.391,16.006a13.9,13.9,0,0,1-4.36-.694,1.868,1.868,0,0,0-1.9.4L13.373,17.8A15.416,15.416,0,0,1,6.513,10.94L8.541,8.245a1.937,1.937,0,0,0,.475-1.958,13.893,13.893,0,0,1-.7-4.368A1.922,1.922,0,0,0,6.4,0H1.919A1.922,1.922,0,0,0,0,1.919,22.417,22.417,0,0,0,22.391,24.31a1.922,1.922,0,0,0,1.919-1.919V17.926A1.922,1.922,0,0,0,22.391,16.006Z" fill="#fff"/>
    </g>
  </g>
</svg>
