<svg xmlns="http://www.w3.org/2000/svg" width="28" height="32.881" viewBox="0 0 28 32.881"><defs><style>.a{fill:#ee405e;}</style></defs><g transform="translate(0 0.001)"><path className="a" d="M126.706,158.457a6.265,6.265,0,1,0,6.265,6.265A6.272,6.272,0,0,0,126.706,158.457Zm3.72,5.085-4.488,4.488a.964.964,0,0,1-1.364,0l-1.715-1.715a.965.965,0,1,1,1.364-1.364l1.033,1.033,3.806-3.806a.965.965,0,0,1,1.364,1.364Zm0,0" transform="translate(-112.706 -148.282)"/><path className="a" d="M27.967,8.92V8.895c-.014-.316-.024-.65-.03-1.022a3.485,3.485,0,0,0-3.281-3.414A13.523,13.523,0,0,1,15.452.58L15.43.56a2.1,2.1,0,0,0-2.86,0l-.021.02a13.524,13.524,0,0,1-9.2,3.88A3.485,3.485,0,0,0,.064,7.873c-.006.369-.015.7-.03,1.022l0,.059c-.074,3.855-.165,8.653,1.44,13.007a16.558,16.558,0,0,0,3.972,6.187,20.78,20.78,0,0,0,7.774,4.6,2.409,2.409,0,0,0,.319.087,2.353,2.353,0,0,0,.925,0,2.416,2.416,0,0,0,.32-.087,20.794,20.794,0,0,0,7.765-4.6,16.581,16.581,0,0,0,3.972-6.189C28.132,17.589,28.041,12.783,27.967,8.92ZM14,24.634a8.194,8.194,0,1,1,8.194-8.194A8.2,8.2,0,0,1,14,24.634Zm0,0" transform="translate(0 0)"/></g></svg>