<svg xmlns="http://www.w3.org/2000/svg" width="21.721" height="21.721" viewBox="0 0 21.721 21.721">
  <path id="twitter_1_" data-name="twitter (1)" d="M10.861,0A10.861,10.861,0,1,0,21.721,10.861,10.862,10.862,0,0,0,10.861,0ZM15.82,8.468q.007.16.007.322a7.044,7.044,0,0,1-7.093,7.093h0a7.056,7.056,0,0,1-3.821-1.12,5.07,5.07,0,0,0,.595.034,5,5,0,0,0,3.1-1.067A2.5,2.5,0,0,1,6.275,12,2.485,2.485,0,0,0,7.4,11.956a2.493,2.493,0,0,1-2-2.444c0-.011,0-.021,0-.032a2.476,2.476,0,0,0,1.129.312,2.495,2.495,0,0,1-.772-3.328,7.077,7.077,0,0,0,5.138,2.6A2.494,2.494,0,0,1,15.145,6.8a5,5,0,0,0,1.583-.605,2.5,2.5,0,0,1-1.1,1.379,4.972,4.972,0,0,0,1.431-.393A5.066,5.066,0,0,1,15.82,8.468Zm0,0" fill="#a6a8ac"/>
</svg>
