<svg id="whatsapp" xmlns="http://www.w3.org/2000/svg" width="24.488" height="24.488" viewBox="0 0 24.488 24.488">
  <g id="Group_1022" data-name="Group 1022">
    <path id="Path_861" data-name="Path 861" d="M12.247,0h-.006a12.237,12.237,0,0,0-9.91,19.421L.805,23.969l4.706-1.5A12.242,12.242,0,1,0,12.247,0Zm7.125,17.29a3.455,3.455,0,0,1-2.4,1.728c-.64.136-1.475.245-4.289-.921-3.6-1.491-5.915-5.147-6.1-5.384A6.993,6.993,0,0,1,5.13,9.019a3.909,3.909,0,0,1,1.252-2.98A1.779,1.779,0,0,1,7.634,5.6c.152,0,.288.008.41.014.36.015.54.037.778.6.3.712,1.015,2.469,1.1,2.649a.729.729,0,0,1,.052.663,2.116,2.116,0,0,1-.4.562c-.181.208-.352.367-.533.591-.165.194-.352.4-.144.762a10.868,10.868,0,0,0,1.987,2.469,9,9,0,0,0,2.871,1.771.774.774,0,0,0,.863-.136,14.815,14.815,0,0,0,.957-1.267.683.683,0,0,1,.879-.266c.331.115,2.08.98,2.44,1.159s.6.266.684.418A3.049,3.049,0,0,1,19.372,17.29Z" fill="#25d366"/>
  </g>
</svg>
