<svg xmlns="http://www.w3.org/2000/svg" width="13.488" height="13.488" viewBox="0 0 13.488 13.488"><defs><style>.a{fill:#ee405e;}</style></defs><path className="a" d="M12.406,8.853A7.658,7.658,0,0,1,10,8.47,1.1,1.1,0,0,0,8.932,8.7L7.415,9.841A8.381,8.381,0,0,1,3.647,6.073L4.758,4.6a1.09,1.09,0,0,0,.268-1.1,7.67,7.67,0,0,1-.385-2.409A1.084,1.084,0,0,0,3.559,0H1.082A1.084,1.084,0,0,0,0,1.082,12.42,12.42,0,0,0,12.406,13.488a1.084,1.084,0,0,0,1.082-1.082V9.936A1.084,1.084,0,0,0,12.406,8.853Z"/></svg>