<svg xmlns="http://www.w3.org/2000/svg" width="46" height="40.164" viewBox="0 0 46 40.164"><defs><style>.a{fill:#ee405e;}</style></defs><g transform="translate(0 -22.509)"><g transform="translate(0 22.509)"><g transform="translate(0 0)"><g transform="translate(21.673)"><path className="a" d="M240.371,72.057c-1.375-.551-1.772-.884-1.772-1.486,0-.482.365-1.044,1.393-1.044a3.868,3.868,0,0,1,1.613.362.507.507,0,0,0,.237.06.479.479,0,0,0,.448-.307l.25-.639a.4.4,0,0,0-.213-.508,9.674,9.674,0,0,0-1.666-.434.086.086,0,0,1-.079-.088l0-.926a.513.513,0,0,0-.519-.506h-.448a.513.513,0,0,0-.519.506v.974c0,.075-.081.107-.11.114a2.689,2.689,0,0,0-2.245,2.617c0,1.591,1.315,2.31,2.736,2.85,1.135.446,1.6.9,1.6,1.561,0,.721-.656,1.225-1.6,1.225a5.625,5.625,0,0,1-1.9-.514.508.508,0,0,0-.219-.05.485.485,0,0,0-.459.319l-.239.646a.42.42,0,0,0,.213.524,8.454,8.454,0,0,0,2.015.56c.015,0,.094.03.094.1v.97a.513.513,0,0,0,.519.506h.463a.513.513,0,0,0,.519-.506V77.924a.1.1,0,0,1,.085-.107,2.814,2.814,0,0,0,2.378-2.759C242.948,73.668,242.177,72.771,240.371,72.057Z" transform="translate(-227.628 -60.831)"/><path className="a" d="M179.325,22.509a12.164,12.164,0,1,0,12.164,12.164A12.164,12.164,0,0,0,179.325,22.509Zm0,21.509a9.345,9.345,0,1,1,9.344-9.345A9.345,9.345,0,0,1,179.325,44.018Z" transform="translate(-167.161 -22.509)"/></g><g transform="translate(0 25.491)"><path className="a" d="M128.4,223.852a30.949,30.949,0,0,1-9.692,3.3c-3.157.5-9.095-.7-9.095-2.109,0-.534,5.208,1.316,8.359.476,2.416-.645,2.073-2.9.759-3.2s-8.96-3.1-12.229-3.2a56.532,56.532,0,0,0-7.182.835c-.63.1-1.025.091-1.065.694-.183,2.8-.544,8.535-.741,11.529,0,.063.084.914.786.315.768-.655,1.846-1.382,2.843-1.156,1.564.355,15.095,2.834,16.961,2.4,2.67-.621,10.228-5.1,11.677-6.492C132.025,225.093,130.279,222.814,128.4,223.852Z" transform="translate(-84.869 -219.121)"/><path className="a" d="M9.649,222.387l-7.088-.349a1.276,1.276,0,0,0-1.242.916L.03,234.656a.773.773,0,0,0,.748,1H8.634a1.046,1.046,0,0,0,1.072-.955l.863-11.274A.967.967,0,0,0,9.649,222.387ZM5.476,234.108a1.96,1.96,0,1,1,1.96-1.96A1.96,1.96,0,0,1,5.476,234.108Z" transform="translate(0 -221.658)"/></g></g></g></g></svg>