<svg xmlns="http://www.w3.org/2000/svg" width="9.667" height="9.645" viewBox="0 0 9.667 9.645"><defs><style>.a{fill:#ef5266;}</style></defs><g transform="translate(-108 -24.394)"><path className="a" d="M117.449,32.022l-1.493-1.493a.778.778,0,0,0-1.1.021l-.752.752-.148-.083a7.049,7.049,0,0,1-3.12-3.121c-.028-.05-.055-.1-.081-.145l.5-.5.248-.248a.778.778,0,0,0,.02-1.1l-1.493-1.493a.778.778,0,0,0-1.1.021l-.421.423.011.011a2.433,2.433,0,0,0-.347.612,2.535,2.535,0,0,0-.154.62c-.2,1.634.55,3.128,2.576,5.154,2.8,2.8,5.059,2.59,5.156,2.579a2.523,2.523,0,0,0,.622-.156,2.425,2.425,0,0,0,.609-.345l.009.008.426-.417A.779.779,0,0,0,117.449,32.022Z"/></g></svg>