<svg xmlns="http://www.w3.org/2000/svg" width="85.865" height="56.796" viewBox="0 0 85.865 56.796"><defs><style>.a{fill:#fff;}</style></defs><g transform="translate(-210.16 -182.281)"><g transform="translate(224.611 182.281)"><path className="a" d="M274.412,190.32a2.234,2.234,0,0,1,.1.361.218.218,0,0,1-.051.2.415.415,0,0,1-.247.082q-.177.016-.488.016t-.5-.009a1.258,1.258,0,0,1-.276-.038.253.253,0,0,1-.133-.079.429.429,0,0,1-.063-.133l-.551-1.647h-3.079l-.519,1.6a.522.522,0,0,1-.066.149.274.274,0,0,1-.133.1.972.972,0,0,1-.26.047q-.168.013-.44.013a4.19,4.19,0,0,1-.456-.019.348.348,0,0,1-.228-.092.248.248,0,0,1-.044-.206,2.077,2.077,0,0,1,.095-.355l2.528-7.273a.629.629,0,0,1,.089-.174.312.312,0,0,1,.161-.1,1.263,1.263,0,0,1,.307-.045q.2-.01.52-.009.374,0,.6.009a1.57,1.57,0,0,1,.345.045.329.329,0,0,1,.177.1.61.61,0,0,1,.092.19Zm-3.763-6.012h-.006l-1.159,3.484h2.325Z" transform="translate(-266.964 -182.597)"/><path className="a" d="M307.559,186.833a5.6,5.6,0,0,1-.295,1.929,3.273,3.273,0,0,1-.846,1.308,3.393,3.393,0,0,1-1.34.744,6.563,6.563,0,0,1-1.879.238h-1.958a.518.518,0,0,1-.352-.124.507.507,0,0,1-.142-.4V183.38a.508.508,0,0,1,.142-.4.519.519,0,0,1,.352-.123h2.1a5.879,5.879,0,0,1,1.86.257,3.365,3.365,0,0,1,1.286.76,3.259,3.259,0,0,1,.8,1.245A4.972,4.972,0,0,1,307.559,186.833Zm-1.723.057a4.126,4.126,0,0,0-.136-1.084,2.307,2.307,0,0,0-.437-.868,2.027,2.027,0,0,0-.773-.573,3.137,3.137,0,0,0-1.238-.206h-.843v5.575h.868a3.275,3.275,0,0,0,1.153-.177,1.925,1.925,0,0,0,.782-.536,2.309,2.309,0,0,0,.469-.89A4.453,4.453,0,0,0,305.836,186.89Z" transform="translate(-292.154 -182.708)"/><path className="a" d="M342.451,190.824a.2.2,0,0,1-.035.114.243.243,0,0,1-.127.082,1.213,1.213,0,0,1-.244.051,3.2,3.2,0,0,1-.386.019,3.141,3.141,0,0,1-.38-.019,1.146,1.146,0,0,1-.241-.051.263.263,0,0,1-.127-.082.184.184,0,0,1-.038-.114v-6.671h-.013l-2.376,6.665a.308.308,0,0,1-.082.136.4.4,0,0,1-.155.085,1.044,1.044,0,0,1-.25.041c-.1.006-.224.009-.367.009a3.654,3.654,0,0,1-.368-.016,1.1,1.1,0,0,1-.25-.051.457.457,0,0,1-.155-.085.242.242,0,0,1-.076-.12l-2.294-6.665h-.013v6.671a.2.2,0,0,1-.035.114.244.244,0,0,1-.13.082,1.283,1.283,0,0,1-.244.051,3.826,3.826,0,0,1-.763,0,1.211,1.211,0,0,1-.244-.051.242.242,0,0,1-.127-.082.2.2,0,0,1-.035-.114v-7.3a.67.67,0,0,1,.171-.494.617.617,0,0,1,.456-.171h1.09a2.3,2.3,0,0,1,.5.048.971.971,0,0,1,.361.158.9.9,0,0,1,.253.291,2.1,2.1,0,0,1,.177.446l1.774,4.885h.025l1.837-4.872a2.562,2.562,0,0,1,.181-.45,1.05,1.05,0,0,1,.228-.3.755.755,0,0,1,.307-.162,1.6,1.6,0,0,1,.412-.048h1.121a.879.879,0,0,1,.295.044.5.5,0,0,1,.2.13.572.572,0,0,1,.121.209.9.9,0,0,1,.041.282Z" transform="translate(-316.123 -182.708)"/><path className="a" d="M379.145,190.713a.176.176,0,0,1-.041.114.287.287,0,0,1-.136.082,1.3,1.3,0,0,1-.253.051,4.284,4.284,0,0,1-.808,0,1.3,1.3,0,0,1-.256-.051.287.287,0,0,1-.136-.082.175.175,0,0,1-.041-.114v-7.742a.177.177,0,0,1,.041-.114.29.29,0,0,1,.139-.082,1.405,1.405,0,0,1,.257-.051,3.442,3.442,0,0,1,.4-.019,3.524,3.524,0,0,1,.405.019,1.333,1.333,0,0,1,.253.051.288.288,0,0,1,.136.082.177.177,0,0,1,.041.114Z" transform="translate(-349.359 -182.597)"/><path className="a" d="M397.151,190.836a.251.251,0,0,1-.025.117.2.2,0,0,1-.121.079,1.2,1.2,0,0,1-.279.044q-.184.013-.5.013-.266,0-.424-.013a.943.943,0,0,1-.25-.047.271.271,0,0,1-.13-.089.49.49,0,0,1-.063-.13l-.735-1.831q-.133-.31-.26-.551a1.757,1.757,0,0,0-.282-.4,1.029,1.029,0,0,0-.358-.244,1.244,1.244,0,0,0-.469-.082h-.52v3.123a.177.177,0,0,1-.041.114.286.286,0,0,1-.136.082,1.3,1.3,0,0,1-.253.051,4.283,4.283,0,0,1-.808,0,1.3,1.3,0,0,1-.256-.051.265.265,0,0,1-.133-.082.184.184,0,0,1-.038-.114V183.38a.507.507,0,0,1,.143-.4.519.519,0,0,1,.352-.123h2.122q.323,0,.532.013t.38.032a3.449,3.449,0,0,1,.89.241,2.135,2.135,0,0,1,.672.446,1.861,1.861,0,0,1,.421.653,2.386,2.386,0,0,1,.146.865,2.53,2.53,0,0,1-.1.751,1.917,1.917,0,0,1-.307.6,2.018,2.018,0,0,1-.5.462,2.706,2.706,0,0,1-.678.317,1.9,1.9,0,0,1,.345.215,1.811,1.811,0,0,1,.3.307,2.953,2.953,0,0,1,.269.412,5.406,5.406,0,0,1,.247.523l.691,1.615q.1.241.127.352A.682.682,0,0,1,397.151,190.836ZM395,185.274a1.217,1.217,0,0,0-.184-.684,1,1,0,0,0-.6-.393,2.326,2.326,0,0,0-.288-.051,4.026,4.026,0,0,0-.446-.019h-.748v2.325h.849a2.042,2.042,0,0,0,.621-.086,1.244,1.244,0,0,0,.444-.241.989.989,0,0,0,.266-.371A1.254,1.254,0,0,0,395,185.274Z" transform="translate(-359.496 -182.708)"/><path className="a" d="M424.349,190.32a2.207,2.207,0,0,1,.095.361.218.218,0,0,1-.051.2.414.414,0,0,1-.247.082q-.178.016-.488.016t-.5-.009a1.256,1.256,0,0,1-.276-.038.253.253,0,0,1-.133-.079.43.43,0,0,1-.063-.133l-.551-1.647h-3.079l-.52,1.6a.513.513,0,0,1-.066.149.275.275,0,0,1-.133.1.969.969,0,0,1-.259.047q-.168.013-.44.013a4.19,4.19,0,0,1-.456-.019.347.347,0,0,1-.228-.092.247.247,0,0,1-.045-.206,2.089,2.089,0,0,1,.1-.355l2.528-7.273a.633.633,0,0,1,.089-.174.313.313,0,0,1,.162-.1,1.263,1.263,0,0,1,.307-.045q.2-.01.52-.009.374,0,.6.009a1.57,1.57,0,0,1,.345.045.33.33,0,0,1,.177.1.618.618,0,0,1,.092.19Zm-3.763-6.012h-.006l-1.159,3.484h2.325Z" transform="translate(-378.756 -182.597)"/><path className="a" d="M455.191,190.244a2.731,2.731,0,0,1-.016.32.963.963,0,0,1-.047.215.276.276,0,0,1-.079.123.171.171,0,0,1-.111.038h-3.757a.518.518,0,0,1-.352-.124.507.507,0,0,1-.142-.4v-7.444a.176.176,0,0,1,.041-.114.288.288,0,0,1,.136-.082,1.329,1.329,0,0,1,.256-.051,4.344,4.344,0,0,1,.808,0,1.339,1.339,0,0,1,.253.051.29.29,0,0,1,.136.082.178.178,0,0,1,.041.114v6.6h2.578a.182.182,0,0,1,.111.035.254.254,0,0,1,.079.114.854.854,0,0,1,.047.209A2.726,2.726,0,0,1,455.191,190.244Z" transform="translate(-403.947 -182.597)"/><path className="a" d="M475.662,188.167a2.531,2.531,0,0,1-.241,1.134,2.349,2.349,0,0,1-.653.814,2.844,2.844,0,0,1-.963.491,4.093,4.093,0,0,1-1.178.165,4.192,4.192,0,0,1-.789-.07,4.467,4.467,0,0,1-.643-.168,2.78,2.78,0,0,1-.466-.206,1.353,1.353,0,0,1-.269-.19.472.472,0,0,1-.117-.238,2.154,2.154,0,0,1-.035-.447c0-.131,0-.241.013-.329a.948.948,0,0,1,.041-.215.237.237,0,0,1,.076-.117.182.182,0,0,1,.111-.035.531.531,0,0,1,.25.1,4.333,4.333,0,0,0,.415.231,3.731,3.731,0,0,0,.605.231,2.863,2.863,0,0,0,.814.1,1.873,1.873,0,0,0,.545-.073,1.215,1.215,0,0,0,.409-.206.872.872,0,0,0,.257-.329,1.049,1.049,0,0,0,.089-.437.765.765,0,0,0-.152-.478,1.506,1.506,0,0,0-.4-.355,4.115,4.115,0,0,0-.554-.292q-.311-.136-.64-.288a5.847,5.847,0,0,1-.64-.345,2.58,2.58,0,0,1-.554-.462,2.18,2.18,0,0,1-.4-.637,2.3,2.3,0,0,1-.152-.88,2.331,2.331,0,0,1,.218-1.036,2.129,2.129,0,0,1,.589-.742,2.51,2.51,0,0,1,.874-.44,3.82,3.82,0,0,1,1.067-.146,3.873,3.873,0,0,1,.583.045,3.956,3.956,0,0,1,.545.12,3.036,3.036,0,0,1,.45.171,1.057,1.057,0,0,1,.26.159.471.471,0,0,1,.085.108.535.535,0,0,1,.038.117,1.241,1.241,0,0,1,.022.184c0,.074.006.166.006.276s0,.226-.01.31a1.134,1.134,0,0,1-.031.209.248.248,0,0,1-.063.12.157.157,0,0,1-.111.038.526.526,0,0,1-.222-.089q-.152-.089-.374-.193a3.631,3.631,0,0,0-.513-.19,2.276,2.276,0,0,0-.64-.085,1.524,1.524,0,0,0-.475.067.982.982,0,0,0-.339.184.72.72,0,0,0-.2.282.918.918,0,0,0-.067.349.767.767,0,0,0,.149.472,1.422,1.422,0,0,0,.4.355,4.281,4.281,0,0,0,.567.292q.317.136.646.288a6.34,6.34,0,0,1,.646.345,2.615,2.615,0,0,1,.564.463,2.167,2.167,0,0,1,.4.634A2.22,2.22,0,0,1,475.662,188.167Z" transform="translate(-418.577 -182.281)"/></g><g transform="translate(242.778 200.654)"><path className="a" d="M370.582,260.488l.148-.355a5.826,5.826,0,0,1,1.238-2.068.884.884,0,0,1-.071-.348,23.113,23.113,0,0,1,.772-2.841l.121-.376.121.376a23.152,23.152,0,0,1,.772,2.841.884.884,0,0,1-.071.349,5.836,5.836,0,0,1,1.239,2.067l.148.355-.331-.2a3.591,3.591,0,0,0-1.21-.488.884.884,0,0,0-1.337,0,3.581,3.581,0,0,0-1.209.488Zm2.209-1.475.111.2a.636.636,0,0,0,.556.333,2.741,2.741,0,0,1,1.01.343c-.4-.895-.85-1.62-1.01-1.62l-.03,0-.253.011.142-.21a.636.636,0,0,0,.112-.36,18.479,18.479,0,0,0-.638-2.38,18.5,18.5,0,0,0-.639,2.38.631.631,0,0,0,.112.359l.144.209-.282-.013h0c-.163,0-.609.724-1.012,1.619a2.73,2.73,0,0,1,1.009-.343.639.639,0,0,0,.558-.333Z" transform="translate(-362.388 -254.501)"/><path className="a" d="M359.169,319.348h-20.8l6.177-1.459,8.469,0Zm-18.616-.254H356.99l-4.014-.95h-8.41Z" transform="translate(-338.374 -301.763)"/><path className="a" d="M365.019,286.919h-8.694V286.3a4.838,4.838,0,0,1-1.99-4.186c0-2.517,1.484-4.565,3.308-4.565a2.435,2.435,0,0,1,.549.068l.211.049-.145.16a6.08,6.08,0,0,0-1.423,4.047,6.227,6.227,0,0,0,1.238,3.825h.44a5.755,5.755,0,0,1-1.331-3.825c0-2.7,1.591-4.9,3.546-4.9s3.545,2.2,3.545,4.9a5.753,5.753,0,0,1-1.331,3.825h.439a6.218,6.218,0,0,0,1.239-3.825,6.077,6.077,0,0,0-1.423-4.047l-.145-.16.21-.049a2.43,2.43,0,0,1,.549-.068c1.824,0,3.308,2.048,3.308,4.565a4.8,4.8,0,0,1-2.1,4.248Zm-8.44-.254h8.185v-.456l.07-.035a4.5,4.5,0,0,0,2.033-4.057c0-2.377-1.37-4.311-3.054-4.311a1.919,1.919,0,0,0-.281.021,6.768,6.768,0,0,1,.008,8.082l-.038.047h-1.184l.234-.22a5.345,5.345,0,0,0,1.466-3.86c0-2.559-1.476-4.641-3.29-4.641s-3.291,2.082-3.291,4.641a5.346,5.346,0,0,0,1.466,3.86l.233.22h-1.184l-.038-.047a6.77,6.77,0,0,1,.009-8.081,1.889,1.889,0,0,0-.281-.022c-1.684,0-3.054,1.934-3.054,4.311a4.543,4.543,0,0,0,1.925,4l.065.037Z" transform="translate(-350.274 -271.261)"/><path className="a" d="M377.343,281.19a.678.678,0,1,1,.667-.812h0a.679.679,0,0,1-.532.8A.688.688,0,0,1,377.343,281.19Zm0-1.1a.427.427,0,0,0-.083.008.424.424,0,1,0,.5.333A.425.425,0,0,0,377.345,280.087Z" transform="translate(-366.924 -273.388)"/><path className="a" d="M377.345,288.524a.678.678,0,1,1,.665-.812h0a.679.679,0,0,1-.665.812Zm0-1.1a.427.427,0,0,0-.083.008.425.425,0,1,0,.083-.008Z" transform="translate(-366.924 -278.856)"/><path className="a" d="M377.345,295.273a.678.678,0,1,1,.665-.812h0a.679.679,0,0,1-.665.812Zm0-1.1a.424.424,0,1,0,.416.341A.425.425,0,0,0,377.345,294.171Z" transform="translate(-366.924 -283.889)"/><path className="a" d="M377.345,301.773a.678.678,0,1,1,.665-.812h0a.679.679,0,0,1-.665.812Zm0-1.1a.424.424,0,1,0,.416.341A.425.425,0,0,0,377.345,300.671Z" transform="translate(-366.924 -288.735)"/><path className="a" d="M377.344,308.69a.679.679,0,0,1-.664-.546.678.678,0,1,1,1.33-.266h0a.679.679,0,0,1-.532.8A.69.69,0,0,1,377.344,308.69Zm0-1.1a.446.446,0,0,0-.083.008.425.425,0,1,0,.083-.008Z" transform="translate(-366.925 -293.892)"/></g><path className="a" d="M309.443,269.253l.626-1.45a19.449,19.449,0,0,1,4.94-6.451c.949-.8,1.756-1.421,2.405-1.917,1.6-1.226,2.264-1.733,2.378-2.835a16.816,16.816,0,0,0,.076-2.537l-16.114-.125-11.723.123a16.76,16.76,0,0,0,.076,2.538c.114,1.1.777,1.609,2.378,2.835.648.5,1.456,1.114,2.405,1.917a17.835,17.835,0,0,1,4.787,6.37l.589,1.488-2.8-1.828a51.863,51.863,0,0,0-11.108-4.768,36.1,36.1,0,0,0-4.223-.837,4.524,4.524,0,0,1-2.544-.808c-1.042-.962-.421-2.844-.347-3.056l.132-.374,5.014.463c.033-2.564.47-13.271,5.285-21.39a41.856,41.856,0,0,1,14.008-13.729l.237-.13.033.017.033-.017.237.13a41.854,41.854,0,0,1,14.008,13.729c4.815,8.119,5.252,18.826,5.285,21.39l5.014-.463.132.374c.074.211.7,2.093-.347,3.056a4.523,4.523,0,0,1-2.544.808,36.1,36.1,0,0,0-4.223.837,51.862,51.862,0,0,0-11.108,4.768c-1.43.932-1.621,1.049-1.638,1.06Zm-5.69-16.334,17.041.132.053.445a15.86,15.86,0,0,1-.042,3.207c-.159,1.539-1.087,2.249-2.772,3.538-.64.49-1.436,1.1-2.366,1.886a18.756,18.756,0,0,0-3.726,4.362,53.58,53.58,0,0,1,11.346-4.861,36.941,36.941,0,0,1,4.332-.859,4.055,4.055,0,0,0,2-.549c.344-.318.3-1.062.181-1.593l-5.317.491.011-.569c0-.123.185-12.432-5.144-21.418a40.814,40.814,0,0,0-13.4-13.229,40.814,40.814,0,0,0-13.4,13.229c-5.334,8.993-5.147,21.295-5.144,21.418l.012.569-5.316-.491c-.11.505-.179,1.262.18,1.593a4.053,4.053,0,0,0,2,.549,36.925,36.925,0,0,1,4.332.859,53.952,53.952,0,0,1,11.252,4.8,17.486,17.486,0,0,0-3.632-4.3c-.93-.787-1.726-1.4-2.366-1.886-1.685-1.289-2.613-2-2.772-3.538a15.866,15.866,0,0,1-.041-3.207l.053-.444ZM319.5,249.19H292.395l.1-.6a33.961,33.961,0,0,1,5.042-12.074,33.117,33.117,0,0,1,8.128-7.752l.281-.186.281.186a33.114,33.114,0,0,1,8.127,7.752,33.966,33.966,0,0,1,5.043,12.074Zm-25.879-1.018h24.649a33.761,33.761,0,0,0-4.755-11.077,32.215,32.215,0,0,0-7.569-7.288,32.211,32.211,0,0,0-7.569,7.288A33.706,33.706,0,0,0,293.625,248.173Z" transform="translate(-52.81 -30.176)"/><g transform="translate(265.493 183.99)"><path className="a" d="M431.521,217.264a.509.509,0,0,1-.477-.332,30.5,30.5,0,0,0-2.335-4.966c-.295-.5-.618-1.008-.962-1.52a.509.509,0,0,1,.2-.74c.733-.362,3.394-1.7,6.842-3.677a91.168,91.168,0,0,0,13.653-9.437,29.74,29.74,0,0,0,5.909-7.32.509.509,0,0,1,.944.115c.076.3,1.84,7.5.759,11.287-.8,2.809-3.863,5.694-10.562,9.957a63.508,63.508,0,0,1-13.812,6.609A.507.507,0,0,1,431.521,217.264Zm-2.611-6.9c.237.366.463.729.674,1.086a31.111,31.111,0,0,1,2.241,4.672,63.15,63.15,0,0,0,13.119-6.347c6.382-4.062,9.412-6.866,10.129-9.378.751-2.631-.037-7.291-.492-9.514a31.165,31.165,0,0,1-5.464,6.473,92.181,92.181,0,0,1-13.823,9.559C432.389,208.579,430.036,209.794,428.91,210.361Z" transform="translate(-427.66 -189)"/><path className="a" d="M443.32,249.39c-.181,0-.4-.1-.594-.442a.5.5,0,0,1-.055-.15,42.873,42.873,0,0,0-1.8-6.5.509.509,0,0,1,.321-.661,62.355,62.355,0,0,0,13.578-6.5c.509-.324.995-.639,1.462-.948l.041-.024a7.655,7.655,0,0,0,1.146-.772l.029-.021c4.54-3.117,6.838-5.464,7.452-7.612a8.677,8.677,0,0,0,.282-1.82.51.51,0,0,1,.079-.243c.175-.274.273-.432.274-.435a.509.509,0,0,1,.913.1,31.426,31.426,0,0,1,1.57,8.719c.073,3.807-2.582,7.417-8.117,11.036-4.425,2.893-15.936,6.119-16.424,6.255A.557.557,0,0,1,443.32,249.39ZM442,242.437a44.167,44.167,0,0,1,1.6,5.836c2.115-.609,11.9-3.5,15.737-6.011,5.218-3.412,7.722-6.737,7.656-10.165a29.435,29.435,0,0,0-.988-6.618q-.059.294-.135.558c-.691,2.421-3.037,4.862-7.839,8.161a8.7,8.7,0,0,1-1.266.852c-.466.308-.95.621-1.457.944A64.22,64.22,0,0,1,442,242.437Z" transform="translate(-437.483 -214.364)"/><path className="a" d="M449.3,300.851a.509.509,0,0,1-.506-.46c-.173-1.809-.434-3.6-.775-5.319a.509.509,0,0,1,.822-.493c1.857-.532,11.937-3.486,15.848-6.043.675-.441,1.312-.886,1.894-1.322l2.911-2.04a.509.509,0,0,1,.8.367l.021.2c.127,1.179.512,4.766-.925,7.134-1.782,2.935-7.237,4.88-11.5,5.995-4.424,1.157-7.411,1.766-8.49,1.974A.5.5,0,0,1,449.3,300.851Zm-.154-5.3c.252,1.364.454,2.767.6,4.184,1.363-.274,4.088-.86,7.879-1.852,5.852-1.53,9.617-3.446,10.887-5.538,1.063-1.751.973-4.4.849-5.838l-2.187,1.532c-.586.44-1.242.9-1.934,1.35C461.179,292.047,451.126,294.987,449.148,295.551Z" transform="translate(-442.833 -260.639)"/><path className="a" d="M451.829,338.443a.508.508,0,0,1-.509-.512c0-.46-.005-2.146-.232-4.513a.508.508,0,0,1,.41-.548c1.069-.206,4.03-.81,8.426-1.96a44.959,44.959,0,0,0,4.735-1.5.45.45,0,0,1,.2-.034c.8.02,1.261.075,1.28.077a.508.508,0,0,1,.444.444c.019.153.131,1.555-1.568,3.451a13.91,13.91,0,0,1-5.445,3.776,22.448,22.448,0,0,1-7.734,1.313Zm.315-4.662c.143,1.637.182,2.915.192,3.635a21.012,21.012,0,0,0,6.838-1.225,12.812,12.812,0,0,0,5.08-3.516,4.968,4.968,0,0,0,1.275-2.247c-.162-.01-.363-.02-.6-.027a46.33,46.33,0,0,1-4.748,1.495C456.272,332.918,453.484,333.513,452.144,333.781Z" transform="translate(-445.127 -293.666)"/></g><g transform="translate(210.16 183.99)"><path className="a" d="M242.081,217.264a.5.5,0,0,1-.156-.025,63.474,63.474,0,0,1-13.812-6.609c-6.7-4.263-9.759-7.148-10.562-9.957-1.081-3.785.683-10.982.759-11.287a.509.509,0,0,1,.944-.115,29.826,29.826,0,0,0,5.91,7.321,91.135,91.135,0,0,0,13.653,9.437c3.448,1.982,6.109,3.316,6.842,3.677a.509.509,0,0,1,.2.74c-.342.509-.666,1.021-.962,1.52a30.46,30.46,0,0,0-2.335,4.965A.509.509,0,0,1,242.081,217.264Zm-23.059-26.385c-.455,2.223-1.244,6.884-.492,9.514.718,2.511,3.747,5.316,10.13,9.378a63.126,63.126,0,0,0,13.118,6.347,31.062,31.062,0,0,1,2.241-4.672c.212-.357.438-.721.674-1.085-1.126-.567-3.479-1.781-6.383-3.45a92.192,92.192,0,0,1-13.823-9.559A31.154,31.154,0,0,1,219.022,190.879Z" transform="translate(-215.41 -189.001)"/><path className="a" d="M234.854,249.389a.564.564,0,0,1-.156-.023c-.484-.135-11.995-3.36-16.42-6.254-5.535-3.619-8.19-7.229-8.117-11.036a31.41,31.41,0,0,1,1.57-8.719.509.509,0,0,1,.913-.1s.1.161.275.435a.507.507,0,0,1,.079.242,8.69,8.69,0,0,0,.282,1.82c.614,2.148,2.912,4.5,7.452,7.612l.029.022a7.652,7.652,0,0,0,1.146.772c.014.007.028.016.041.024.467.309.953.624,1.462.948a62.321,62.321,0,0,0,13.578,6.5.509.509,0,0,1,.321.661,42.851,42.851,0,0,0-1.8,6.5.51.51,0,0,1-.056.151C235.255,249.293,235.037,249.389,234.854,249.389Zm-22.688-23.911a29.442,29.442,0,0,0-.988,6.619c-.066,3.428,2.438,6.753,7.656,10.165,3.84,2.511,13.629,5.4,15.737,6.011a44.184,44.184,0,0,1,1.6-5.836,64.186,64.186,0,0,1-13.312-6.443c-.507-.323-.991-.637-1.457-.944a8.651,8.651,0,0,1-1.266-.851c-4.8-3.3-7.148-5.74-7.839-8.161Q212.226,225.773,212.167,225.478Z" transform="translate(-210.16 -214.363)"/><path className="a" d="M242.745,300.851a.5.5,0,0,1-.1-.009c-1.079-.208-4.067-.817-8.491-1.974-4.263-1.115-9.718-3.06-11.5-5.995-1.437-2.367-1.052-5.954-.926-7.133l.021-.2a.509.509,0,0,1,.8-.367l2.9,2.03q.891.667,1.907,1.332c3.912,2.558,14,5.514,15.848,6.043a.509.509,0,0,1,.822.493c-.341,1.721-.6,3.51-.775,5.319a.508.508,0,0,1-.506.46ZM222.68,286.506c-.124,1.439-.215,4.088.848,5.839,1.271,2.093,5.036,4.008,10.888,5.538,3.791.992,6.516,1.578,7.879,1.852.15-1.416.352-2.819.6-4.184-1.968-.56-12.03-3.5-16.1-6.163-.695-.454-1.35-.912-1.947-1.36Z" transform="translate(-218.682 -260.639)"/><path className="a" d="M260.572,338.444h0a22.447,22.447,0,0,1-7.734-1.313,13.907,13.907,0,0,1-5.445-3.776c-1.7-1.9-1.586-3.3-1.568-3.452a.509.509,0,0,1,.444-.444c.019,0,.48-.057,1.28-.077a.463.463,0,0,1,.2.034,45,45,0,0,0,4.735,1.5c4.4,1.15,7.356,1.754,8.426,1.96a.508.508,0,0,1,.41.548c-.227,2.372-.234,4.053-.231,4.512a.509.509,0,0,1-.509.512Zm-13.7-8.016a4.986,4.986,0,0,0,1.271,2.247,12.816,12.816,0,0,0,5.08,3.516,21.01,21.01,0,0,0,6.838,1.225c.009-.719.049-2,.192-3.635-1.34-.268-4.128-.863-8.038-1.886a46.357,46.357,0,0,1-4.748-1.495C247.238,330.408,247.039,330.418,246.877,330.428Z" transform="translate(-236.743 -293.667)"/></g></g></svg>