<svg xmlns="http://www.w3.org/2000/svg" width="92" height="60.5" viewBox="0 0 92 60.5"><defs><style>.a,.c{fill:#fff;}.b{fill:#ee405e;}.c{font-size:9px;font-family:SegoeUI, Segoe UI;}</style></defs><g transform="translate(-199.729 -182.281)"><g transform="translate(221.801 182.281)"><path className="a" d="M272.964,188.839a1.793,1.793,0,0,1,.077.291.176.176,0,0,1-.041.161.335.335,0,0,1-.2.066q-.143.013-.393.013t-.406-.008a1.013,1.013,0,0,1-.222-.031.2.2,0,0,1-.107-.064.346.346,0,0,1-.051-.107l-.444-1.327H268.7l-.418,1.291a.419.419,0,0,1-.053.12.221.221,0,0,1-.107.077.782.782,0,0,1-.209.038q-.135.01-.355.01a3.379,3.379,0,0,1-.367-.015.28.28,0,0,1-.184-.074.2.2,0,0,1-.036-.166,1.674,1.674,0,0,1,.076-.286l2.036-5.859a.505.505,0,0,1,.071-.14.251.251,0,0,1,.13-.082,1.018,1.018,0,0,1,.248-.036q.158-.008.418-.008.3,0,.48.008a1.267,1.267,0,0,1,.278.036.265.265,0,0,1,.143.084.493.493,0,0,1,.074.153ZM269.932,184h-.005l-.934,2.807h1.873Z" transform="translate(-266.964 -182.618)"/><path className="a" d="M306.235,186.059a4.512,4.512,0,0,1-.238,1.554,2.637,2.637,0,0,1-.681,1.054,2.733,2.733,0,0,1-1.079.6,5.287,5.287,0,0,1-1.513.191h-1.577a.417.417,0,0,1-.283-.1.408.408,0,0,1-.115-.324v-5.757a.409.409,0,0,1,.115-.324.418.418,0,0,1,.283-.1h1.694a4.735,4.735,0,0,1,1.5.207,2.711,2.711,0,0,1,1.036.612,2.626,2.626,0,0,1,.641,1A4.005,4.005,0,0,1,306.235,186.059Zm-1.388.046a3.324,3.324,0,0,0-.11-.873,1.858,1.858,0,0,0-.352-.7,1.633,1.633,0,0,0-.623-.462,2.527,2.527,0,0,0-1-.166h-.679V188.4h.7a2.639,2.639,0,0,0,.929-.143,1.551,1.551,0,0,0,.63-.431,1.86,1.86,0,0,0,.378-.717A3.588,3.588,0,0,0,304.847,186.1Z" transform="translate(-293.825 -182.737)"/><path className="a" d="M340.593,189.274a.159.159,0,0,1-.028.092.2.2,0,0,1-.1.066.977.977,0,0,1-.2.041,2.583,2.583,0,0,1-.311.015,2.533,2.533,0,0,1-.306-.015.922.922,0,0,1-.194-.041.211.211,0,0,1-.1-.066.148.148,0,0,1-.031-.092V183.9h-.01l-1.914,5.369a.248.248,0,0,1-.066.11.325.325,0,0,1-.125.069.841.841,0,0,1-.2.033q-.123.007-.3.008a2.946,2.946,0,0,1-.3-.013.885.885,0,0,1-.2-.041.368.368,0,0,1-.125-.069.2.2,0,0,1-.061-.1l-1.848-5.369h-.01v5.374a.159.159,0,0,1-.028.092.2.2,0,0,1-.1.066,1.033,1.033,0,0,1-.2.041,3.082,3.082,0,0,1-.615,0,.976.976,0,0,1-.2-.041.2.2,0,0,1-.1-.066.157.157,0,0,1-.028-.092V183.39a.54.54,0,0,1,.138-.4.5.5,0,0,1,.367-.138h.878a1.849,1.849,0,0,1,.4.038.782.782,0,0,1,.291.128.722.722,0,0,1,.2.235,1.69,1.69,0,0,1,.143.36l1.429,3.935h.02l1.48-3.925a2.057,2.057,0,0,1,.145-.362.846.846,0,0,1,.184-.24.608.608,0,0,1,.248-.13,1.291,1.291,0,0,1,.332-.038h.9a.709.709,0,0,1,.237.036.406.406,0,0,1,.163.1.461.461,0,0,1,.1.168.721.721,0,0,1,.033.227Z" transform="translate(-319.385 -182.737)"/><path className="a" d="M378.82,189.156a.141.141,0,0,1-.033.092.231.231,0,0,1-.11.066,1.044,1.044,0,0,1-.2.041,3.451,3.451,0,0,1-.651,0,1.045,1.045,0,0,1-.207-.041.231.231,0,0,1-.11-.066.141.141,0,0,1-.033-.092v-6.236a.142.142,0,0,1,.033-.092.234.234,0,0,1,.112-.066,1.135,1.135,0,0,1,.207-.041,2.774,2.774,0,0,1,.322-.015,2.839,2.839,0,0,1,.327.015,1.076,1.076,0,0,1,.2.041.232.232,0,0,1,.11.066.143.143,0,0,1,.033.092Z" transform="translate(-354.825 -182.618)"/><path className="a" d="M395.969,189.284a.2.2,0,0,1-.021.094.164.164,0,0,1-.1.064.96.96,0,0,1-.224.036q-.148.01-.4.01-.214,0-.342-.01a.759.759,0,0,1-.2-.038.219.219,0,0,1-.1-.072.394.394,0,0,1-.051-.1l-.592-1.475q-.107-.25-.209-.444a1.417,1.417,0,0,0-.227-.324.828.828,0,0,0-.288-.2,1,1,0,0,0-.378-.066h-.418v2.516a.142.142,0,0,1-.033.092.23.23,0,0,1-.11.066,1.044,1.044,0,0,1-.2.041,3.449,3.449,0,0,1-.651,0,1.047,1.047,0,0,1-.207-.041.213.213,0,0,1-.107-.066.148.148,0,0,1-.031-.092v-6a.409.409,0,0,1,.115-.324.418.418,0,0,1,.283-.1h1.71q.26,0,.429.01t.306.025a2.779,2.779,0,0,1,.717.194,1.72,1.72,0,0,1,.541.36,1.5,1.5,0,0,1,.339.526,1.922,1.922,0,0,1,.118.7,2.037,2.037,0,0,1-.084.6,1.544,1.544,0,0,1-.247.487,1.626,1.626,0,0,1-.4.373,2.18,2.18,0,0,1-.546.255,1.528,1.528,0,0,1,.278.174,1.46,1.46,0,0,1,.245.248,2.38,2.38,0,0,1,.217.332,4.342,4.342,0,0,1,.2.421l.556,1.3q.077.194.1.283A.55.55,0,0,1,395.969,189.284Zm-1.73-4.481a.98.98,0,0,0-.148-.551.806.806,0,0,0-.485-.316,1.871,1.871,0,0,0-.232-.041,3.243,3.243,0,0,0-.36-.015h-.6v1.873h.684a1.644,1.644,0,0,0,.5-.069,1,1,0,0,0,.357-.194.8.8,0,0,0,.214-.3A1.011,1.011,0,0,0,394.238,184.8Z" transform="translate(-365.635 -182.737)"/><path className="a" d="M422.9,188.839a1.782,1.782,0,0,1,.076.291.176.176,0,0,1-.041.161.334.334,0,0,1-.2.066q-.143.013-.393.013t-.406-.008a1.011,1.011,0,0,1-.222-.031.2.2,0,0,1-.107-.064.347.347,0,0,1-.051-.107l-.444-1.327h-2.48l-.419,1.291a.414.414,0,0,1-.053.12.222.222,0,0,1-.107.077.78.78,0,0,1-.209.038q-.136.01-.355.01a3.379,3.379,0,0,1-.367-.015.28.28,0,0,1-.184-.074.2.2,0,0,1-.036-.166,1.676,1.676,0,0,1,.077-.286l2.036-5.859a.507.507,0,0,1,.071-.14.252.252,0,0,1,.13-.082,1.018,1.018,0,0,1,.248-.036q.158-.008.419-.008.3,0,.48.008a1.266,1.266,0,0,1,.278.036.266.266,0,0,1,.143.084.5.5,0,0,1,.074.153ZM419.869,184h-.005l-.934,2.807H420.8Z" transform="translate(-386.173 -182.618)"/><path className="a" d="M454.315,188.778a2.2,2.2,0,0,1-.013.258.776.776,0,0,1-.038.174.222.222,0,0,1-.064.1.138.138,0,0,1-.089.031h-3.027a.418.418,0,0,1-.283-.1.408.408,0,0,1-.115-.324v-6a.141.141,0,0,1,.033-.092.232.232,0,0,1,.11-.066,1.073,1.073,0,0,1,.207-.041,3.5,3.5,0,0,1,.651,0,1.08,1.08,0,0,1,.2.041.234.234,0,0,1,.11.066.144.144,0,0,1,.033.092v5.313h2.077a.147.147,0,0,1,.089.028.2.2,0,0,1,.064.092.688.688,0,0,1,.038.168A2.2,2.2,0,0,1,454.315,188.778Z" transform="translate(-413.035 -182.618)"/><path className="a" d="M474.621,187.022a2.039,2.039,0,0,1-.194.913,1.892,1.892,0,0,1-.526.656,2.29,2.29,0,0,1-.776.4,3.3,3.3,0,0,1-.949.133,3.375,3.375,0,0,1-.635-.056,3.6,3.6,0,0,1-.518-.135,2.239,2.239,0,0,1-.375-.166,1.088,1.088,0,0,1-.217-.153.38.38,0,0,1-.094-.191,1.737,1.737,0,0,1-.028-.36c0-.105,0-.194.01-.265a.763.763,0,0,1,.033-.174.191.191,0,0,1,.061-.094.147.147,0,0,1,.09-.028.427.427,0,0,1,.2.084,3.5,3.5,0,0,0,.334.186,3.007,3.007,0,0,0,.487.186,2.306,2.306,0,0,0,.656.084,1.508,1.508,0,0,0,.439-.059.977.977,0,0,0,.329-.166.7.7,0,0,0,.207-.265.845.845,0,0,0,.071-.352.617.617,0,0,0-.123-.385,1.214,1.214,0,0,0-.319-.286,3.317,3.317,0,0,0-.446-.235q-.251-.11-.516-.232a4.716,4.716,0,0,1-.516-.278,2.079,2.079,0,0,1-.446-.373,1.757,1.757,0,0,1-.319-.513,1.852,1.852,0,0,1-.123-.709,1.878,1.878,0,0,1,.176-.834,1.715,1.715,0,0,1,.475-.6,2.021,2.021,0,0,1,.7-.355,3.077,3.077,0,0,1,.86-.117,3.122,3.122,0,0,1,.47.036,3.182,3.182,0,0,1,.439.1,2.443,2.443,0,0,1,.362.138.85.85,0,0,1,.209.128.378.378,0,0,1,.069.087.43.43,0,0,1,.031.094,1.006,1.006,0,0,1,.018.148c0,.06.005.133.005.222s0,.182-.008.25a.912.912,0,0,1-.025.168.2.2,0,0,1-.051.1.127.127,0,0,1-.089.031.424.424,0,0,1-.178-.072q-.123-.071-.3-.156a2.924,2.924,0,0,0-.414-.153,1.833,1.833,0,0,0-.515-.069,1.227,1.227,0,0,0-.383.054.79.79,0,0,0-.273.148.58.58,0,0,0-.163.227.74.74,0,0,0-.054.281.618.618,0,0,0,.12.38,1.144,1.144,0,0,0,.322.286,3.448,3.448,0,0,0,.457.235q.255.11.521.232a5.107,5.107,0,0,1,.521.278,2.107,2.107,0,0,1,.454.373,1.745,1.745,0,0,1,.321.51A1.788,1.788,0,0,1,474.621,187.022Z" transform="translate(-428.636 -182.281)"/></g><g transform="translate(236.436 197.082)"><path className="b" d="M370.582,259.324l.119-.286a4.694,4.694,0,0,1,1-1.666.712.712,0,0,1-.057-.281,18.617,18.617,0,0,1,.622-2.288l.1-.3.1.3a18.656,18.656,0,0,1,.622,2.288.712.712,0,0,1-.057.281,4.7,4.7,0,0,1,1,1.665l.119.286-.266-.158a2.893,2.893,0,0,0-.975-.393.712.712,0,0,0-1.077,0,2.885,2.885,0,0,0-.974.393Zm1.779-1.188.09.164a.512.512,0,0,0,.448.268,2.207,2.207,0,0,1,.814.276c-.325-.721-.685-1.3-.814-1.3l-.024,0-.2.009.115-.169a.513.513,0,0,0,.09-.29,14.885,14.885,0,0,0-.514-1.918,14.9,14.9,0,0,0-.515,1.918.508.508,0,0,0,.09.289l.116.168-.227-.01h0c-.131,0-.49.583-.815,1.3a2.2,2.2,0,0,1,.813-.276.515.515,0,0,0,.449-.268Z" transform="translate(-363.981 -254.501)"/><path className="b" d="M355.126,319.064H338.374l4.976-1.175,6.822,0Zm-15-.2H353.37l-3.233-.765h-6.775Z" transform="translate(-338.374 -304.898)"/><path className="b" d="M362.942,284.986h-7v-.5a3.9,3.9,0,0,1-1.6-3.372c0-2.028,1.2-3.678,2.665-3.678a1.963,1.963,0,0,1,.442.055l.17.039-.117.129a4.9,4.9,0,0,0-1.146,3.26,5.016,5.016,0,0,0,1,3.082h.354a4.636,4.636,0,0,1-1.072-3.082c0-2.175,1.281-3.944,2.856-3.944s2.855,1.769,2.855,3.944A4.634,4.634,0,0,1,361.269,284h.354a5.009,5.009,0,0,0,1-3.082,4.9,4.9,0,0,0-1.146-3.26l-.117-.129.17-.039a1.959,1.959,0,0,1,.443-.055c1.469,0,2.665,1.65,2.665,3.678a3.865,3.865,0,0,1-1.694,3.422Zm-6.8-.2h6.594v-.367l.056-.028a3.624,3.624,0,0,0,1.638-3.268c0-1.915-1.1-3.473-2.46-3.473a1.545,1.545,0,0,0-.226.017,5.452,5.452,0,0,1,.007,6.51l-.031.038h-.953l.188-.177a4.306,4.306,0,0,0,1.181-3.11c0-2.062-1.189-3.739-2.65-3.739s-2.651,1.677-2.651,3.739a4.307,4.307,0,0,0,1.181,3.11l.188.177h-.954l-.031-.038a5.454,5.454,0,0,1,.008-6.51,1.522,1.522,0,0,0-.226-.017c-1.356,0-2.46,1.558-2.46,3.473a3.659,3.659,0,0,0,1.551,3.224l.052.029Z" transform="translate(-351.064 -272.372)"/><path className="b" d="M377.212,280.926a.547.547,0,1,1,.537-.654h0a.547.547,0,0,1-.429.643A.555.555,0,0,1,377.212,280.926Zm0-.888a.342.342,0,0,0-.067.007.341.341,0,1,0,.4.268A.343.343,0,0,0,377.213,280.038Z" transform="translate(-368.819 -274.642)"/><path className="b" d="M377.213,288.26a.546.546,0,1,1,.536-.654h0a.547.547,0,0,1-.536.654Zm0-.888a.342.342,0,1,0,.335.274A.342.342,0,0,0,377.213,287.372Z" transform="translate(-368.819 -280.472)"/><path className="b" d="M377.213,295.009a.546.546,0,1,1,.536-.654h0a.547.547,0,0,1-.536.654Zm0-.888a.342.342,0,1,0,.335.274A.342.342,0,0,0,377.213,294.122Z" transform="translate(-368.819 -285.839)"/><path className="b" d="M377.213,301.509a.546.546,0,1,1,.536-.654h0a.547.547,0,0,1-.536.654Zm0-.888a.342.342,0,1,0,.335.274A.342.342,0,0,0,377.213,300.622Z" transform="translate(-368.819 -291.007)"/><path className="b" d="M377.212,308.426a.547.547,0,0,1-.535-.44.546.546,0,1,1,1.072-.214h0a.547.547,0,0,1-.429.643A.555.555,0,0,1,377.212,308.426Zm0-.888a.359.359,0,0,0-.067.007.342.342,0,1,0,.067-.007Z" transform="translate(-368.819 -296.506)"/></g><path className="b" d="M303.91,260.212l.5-1.168a15.668,15.668,0,0,1,3.98-5.2c.765-.647,1.415-1.145,1.937-1.545,1.29-.987,1.824-1.4,1.916-2.284a13.556,13.556,0,0,0,.062-2.044l-12.981-.1-9.444.1a13.5,13.5,0,0,0,.061,2.045c.092.888.626,1.3,1.916,2.284.522.4,1.173.9,1.938,1.545a14.367,14.367,0,0,1,3.857,5.132l.475,1.2-2.258-1.473a41.777,41.777,0,0,0-8.948-3.841,29.065,29.065,0,0,0-3.4-.674,3.645,3.645,0,0,1-2.05-.651c-.84-.775-.339-2.291-.279-2.462l.106-.3,4.039.373c.027-2.066.379-10.69,4.258-17.231a33.718,33.718,0,0,1,11.284-11.059l.191-.1.027.014.026-.014.191.1A33.716,33.716,0,0,1,312.6,233.917c3.879,6.541,4.231,15.165,4.258,17.231l4.039-.373.106.3c.06.17.56,1.686-.28,2.462a3.644,3.644,0,0,1-2.05.651,29.07,29.07,0,0,0-3.4.674,41.778,41.778,0,0,0-8.948,3.841c-1.152.751-1.306.845-1.32.854Zm-4.584-13.158,13.727.106.043.359a12.778,12.778,0,0,1-.034,2.583c-.128,1.239-.876,1.812-2.233,2.85-.515.394-1.157.885-1.906,1.519a15.108,15.108,0,0,0-3,3.514,43.161,43.161,0,0,1,9.14-3.916,29.76,29.76,0,0,1,3.49-.692,3.266,3.266,0,0,0,1.613-.443c.277-.256.239-.855.146-1.284l-4.283.4.009-.458c0-.1.149-10.015-4.144-17.254a32.878,32.878,0,0,0-10.8-10.657,32.878,32.878,0,0,0-10.8,10.657c-4.3,7.245-4.146,17.154-4.144,17.254l.009.459-4.282-.4c-.089.407-.144,1.016.145,1.283a3.265,3.265,0,0,0,1.613.443,29.744,29.744,0,0,1,3.49.692,43.462,43.462,0,0,1,9.064,3.868,14.086,14.086,0,0,0-2.926-3.466c-.749-.634-1.391-1.125-1.906-1.519-1.357-1.038-2.1-1.611-2.233-2.85a12.779,12.779,0,0,1-.033-2.583l.042-.358Zm12.689-3H290.177l.084-.48a27.358,27.358,0,0,1,4.062-9.726,26.677,26.677,0,0,1,6.547-6.245l.226-.15.226.15a26.675,26.675,0,0,1,6.547,6.245,27.361,27.361,0,0,1,4.062,9.726Zm-20.847-.82h19.856a27.2,27.2,0,0,0-3.83-8.923,25.952,25.952,0,0,0-6.1-5.871,25.948,25.948,0,0,0-6.1,5.871A27.151,27.151,0,0,0,291.168,243.23Z" transform="translate(-56.314 -32.178)"/><g transform="translate(254.734 183.658)"><path className="b" d="M430.77,211.768a.41.41,0,0,1-.384-.268,24.566,24.566,0,0,0-1.881-4c-.237-.4-.5-.812-.775-1.225a.41.41,0,0,1,.159-.6c.591-.291,2.734-1.366,5.512-2.962a73.443,73.443,0,0,0,11-7.6,23.957,23.957,0,0,0,4.76-5.9.41.41,0,0,1,.76.093c.061.245,1.482,6.043.611,9.092-.646,2.263-3.112,4.587-8.508,8.021a51.159,51.159,0,0,1-11.126,5.324A.408.408,0,0,1,430.77,211.768Zm-2.1-5.561c.191.294.373.587.543.874a25.065,25.065,0,0,1,1.8,3.763,50.872,50.872,0,0,0,10.568-5.113c5.141-3.272,7.582-5.531,8.16-7.554.605-2.119-.03-5.873-.4-7.664a25.1,25.1,0,0,1-4.4,5.214,74.259,74.259,0,0,1-11.135,7.7C431.469,204.772,429.574,205.751,428.667,206.207Z" transform="translate(-427.66 -189)"/><path className="b" d="M442.837,244.262c-.146,0-.322-.077-.479-.356a.4.4,0,0,1-.045-.121,34.541,34.541,0,0,0-1.453-5.239.41.41,0,0,1,.259-.532,50.232,50.232,0,0,0,10.938-5.235c.41-.261.8-.515,1.178-.763l.033-.02a6.169,6.169,0,0,0,.923-.622l.023-.017c3.657-2.511,5.508-4.4,6-6.132a6.986,6.986,0,0,0,.227-1.466.411.411,0,0,1,.064-.2c.141-.221.22-.348.221-.35a.41.41,0,0,1,.736.079,25.316,25.316,0,0,1,1.265,7.024c.059,3.067-2.08,5.975-6.539,8.89-3.565,2.331-12.838,4.929-13.23,5.039A.449.449,0,0,1,442.837,244.262Zm-1.064-5.6a35.574,35.574,0,0,1,1.291,4.7c1.7-.49,9.585-2.821,12.677-4.842,4.2-2.748,6.221-5.427,6.168-8.188a23.711,23.711,0,0,0-.8-5.331q-.048.237-.108.449c-.557,1.95-2.446,3.917-6.315,6.574a7.01,7.01,0,0,1-1.02.686c-.375.248-.765.5-1.173.761A51.733,51.733,0,0,1,441.773,238.661Z" transform="translate(-438.134 -216.046)"/><path className="b" d="M449.051,297.785a.41.41,0,0,1-.408-.371c-.14-1.458-.35-2.9-.624-4.284a.41.41,0,0,1,.662-.4c1.5-.428,9.616-2.808,12.766-4.868.544-.356,1.057-.714,1.526-1.065l2.345-1.643a.41.41,0,0,1,.643.3l.017.159c.1.949.413,3.839-.745,5.747-1.435,2.364-5.83,3.931-9.264,4.829-3.564.932-5.97,1.423-6.839,1.591A.4.4,0,0,1,449.051,297.785Zm-.124-4.269c.2,1.1.366,2.229.487,3.37,1.1-.221,3.293-.693,6.347-1.492,4.714-1.233,7.747-2.776,8.771-4.461a8.408,8.408,0,0,0,.684-4.7l-1.761,1.234c-.472.354-1,.723-1.558,1.087C458.619,290.693,450.52,293.061,448.927,293.515Z" transform="translate(-443.84 -265.391)"/><path className="b" d="M451.685,336.681a.41.41,0,0,1-.41-.413c0-.371,0-1.728-.186-3.635a.409.409,0,0,1,.33-.441c.861-.166,3.247-.653,6.787-1.579a36.218,36.218,0,0,0,3.814-1.205.363.363,0,0,1,.158-.027c.645.016,1.016.06,1.031.062a.409.409,0,0,1,.357.358,3.823,3.823,0,0,1-1.263,2.78,11.205,11.205,0,0,1-4.386,3.042,18.084,18.084,0,0,1-6.23,1.058Zm.254-3.756c.115,1.318.147,2.348.155,2.928a16.926,16.926,0,0,0,5.509-.987,10.321,10.321,0,0,0,4.092-2.833,4,4,0,0,0,1.027-1.81c-.131-.008-.293-.016-.482-.022a37.337,37.337,0,0,1-3.825,1.2C455.263,332.23,453.018,332.709,451.939,332.925Z" transform="translate(-446.286 -300.611)"/></g><g transform="translate(210.16 183.658)"><path className="b" d="M237.243,211.768a.406.406,0,0,1-.126-.02,51.132,51.132,0,0,1-11.126-5.324c-5.4-3.434-7.862-5.758-8.508-8.021-.871-3.049.55-8.847.611-9.092a.41.41,0,0,1,.76-.093,24.027,24.027,0,0,0,4.76,5.9,73.415,73.415,0,0,0,11,7.6c2.778,1.6,4.921,2.671,5.512,2.962a.41.41,0,0,1,.159.6c-.276.41-.536.822-.775,1.225a24.536,24.536,0,0,0-1.881,4A.41.41,0,0,1,237.243,211.768Zm-18.576-21.254c-.367,1.791-1,5.545-.4,7.664.578,2.023,3.019,4.282,8.16,7.554A50.851,50.851,0,0,0,237,210.846a25.022,25.022,0,0,1,1.805-3.764c.171-.288.353-.581.543-.874-.907-.456-2.8-1.435-5.142-2.78a74.269,74.269,0,0,1-11.135-7.7A25.1,25.1,0,0,1,218.668,190.514Z" transform="translate(-215.758 -189.001)"/><path className="b" d="M230.053,244.261a.454.454,0,0,1-.126-.018c-.39-.108-9.663-2.707-13.227-5.038-4.459-2.915-6.6-5.823-6.539-8.89a25.3,25.3,0,0,1,1.264-7.024.41.41,0,0,1,.736-.08s.08.13.221.35a.409.409,0,0,1,.064.2,7,7,0,0,0,.227,1.466c.494,1.73,2.346,3.622,6,6.132l.024.017a6.165,6.165,0,0,0,.923.622l.033.02c.376.249.767.5,1.178.763a50.2,50.2,0,0,0,10.938,5.235.41.41,0,0,1,.259.532,34.517,34.517,0,0,0-1.453,5.239.412.412,0,0,1-.045.121C230.375,244.184,230.2,244.261,230.053,244.261ZM211.777,225a23.716,23.716,0,0,0-.8,5.332c-.053,2.762,1.964,5.44,6.168,8.188,3.093,2.023,10.979,4.354,12.677,4.842a35.6,35.6,0,0,1,1.291-4.7,51.7,51.7,0,0,1-10.724-5.19c-.408-.26-.8-.513-1.173-.761a6.966,6.966,0,0,1-1.02-.686c-3.869-2.657-5.758-4.624-6.315-6.574Q211.824,225.237,211.777,225Z" transform="translate(-210.16 -216.046)"/><path className="b" d="M238.632,297.785a.4.4,0,0,1-.078-.007c-.869-.168-3.276-.658-6.84-1.591-3.434-.9-7.828-2.465-9.264-4.829-1.158-1.907-.848-4.8-.746-5.746l.017-.16a.41.41,0,0,1,.643-.3l2.334,1.635q.718.538,1.536,1.073c3.152,2.06,11.277,4.442,12.766,4.868a.41.41,0,0,1,.662.4c-.275,1.387-.485,2.828-.624,4.284a.409.409,0,0,1-.408.371Zm-16.164-11.556a8.41,8.41,0,0,0,.683,4.7c1.024,1.686,4.057,3.229,8.771,4.461,3.054.8,5.249,1.271,6.347,1.492.12-1.141.284-2.271.487-3.37-1.585-.452-9.69-2.821-12.968-4.965-.559-.366-1.087-.734-1.569-1.1Z" transform="translate(-219.248 -265.391)"/><path className="b" d="M257.7,336.682h0a18.082,18.082,0,0,1-6.23-1.058,11.2,11.2,0,0,1-4.386-3.042,3.825,3.825,0,0,1-1.263-2.78.41.41,0,0,1,.358-.358c.016,0,.387-.046,1.031-.062a.373.373,0,0,1,.158.027,36.248,36.248,0,0,0,3.814,1.205c3.541.926,5.926,1.413,6.788,1.579a.409.409,0,0,1,.33.441c-.183,1.911-.189,3.265-.186,3.635a.41.41,0,0,1-.41.413Zm-11.033-6.457a4.016,4.016,0,0,0,1.024,1.81,10.324,10.324,0,0,0,4.092,2.833,16.925,16.925,0,0,0,5.508.987c.008-.579.039-1.608.154-2.928-1.079-.216-3.325-.695-6.475-1.519a37.339,37.339,0,0,1-3.825-1.2C246.961,330.208,246.8,330.216,246.67,330.224Z" transform="translate(-238.507 -300.611)"/></g><text className="c" transform="translate(199.729 239.781)"><tspan x="0" y="0">Travel&amp; Transportation</tspan></text></g></svg>