<svg xmlns="http://www.w3.org/2000/svg" width="44.544" height="29.464" viewBox="0 0 44.544 29.464"><defs><style>.a{fill:#fff;}</style></defs><g transform="translate(0)"><g transform="translate(7.497 0)"><path className="a" d="M270.828,186.655a1.158,1.158,0,0,1,.049.187.113.113,0,0,1-.026.1.215.215,0,0,1-.128.043q-.092.008-.253.008t-.261,0a.653.653,0,0,1-.143-.02.132.132,0,0,1-.069-.041.222.222,0,0,1-.033-.069l-.286-.855h-1.6l-.27.832a.271.271,0,0,1-.034.077.142.142,0,0,1-.069.049.5.5,0,0,1-.135.025q-.087.007-.228.007a2.175,2.175,0,0,1-.237-.01.181.181,0,0,1-.118-.047.129.129,0,0,1-.023-.107,1.079,1.079,0,0,1,.049-.184l1.311-3.773a.325.325,0,0,1,.046-.09.162.162,0,0,1,.084-.053.657.657,0,0,1,.159-.023q.1,0,.27,0,.194,0,.309,0a.816.816,0,0,1,.179.023.171.171,0,0,1,.092.054.316.316,0,0,1,.048.1Zm-1.952-3.119h0l-.6,1.808h1.206Z" transform="translate(-266.964 -182.649)"/><path className="a" d="M304.282,184.918a2.906,2.906,0,0,1-.153,1,1.7,1.7,0,0,1-.439.679,1.76,1.76,0,0,1-.7.386,3.4,3.4,0,0,1-.974.123h-1.016a.269.269,0,0,1-.182-.064.263.263,0,0,1-.074-.209v-3.707a.263.263,0,0,1,.074-.209.269.269,0,0,1,.182-.064H302.1a3.05,3.05,0,0,1,.965.133,1.746,1.746,0,0,1,.667.394,1.691,1.691,0,0,1,.413.646A2.579,2.579,0,0,1,304.282,184.918Zm-.894.03a2.142,2.142,0,0,0-.071-.562,1.2,1.2,0,0,0-.227-.45,1.052,1.052,0,0,0-.4-.3,1.627,1.627,0,0,0-.642-.107h-.437v2.892h.45a1.7,1.7,0,0,0,.6-.092,1,1,0,0,0,.406-.278,1.2,1.2,0,0,0,.243-.462A2.308,2.308,0,0,0,303.388,184.948Z" transform="translate(-296.29 -182.778)"/><path className="a" d="M337.853,186.988a.1.1,0,0,1-.018.059.126.126,0,0,1-.066.043.63.63,0,0,1-.127.026,1.661,1.661,0,0,1-.2.01,1.628,1.628,0,0,1-.2-.01.6.6,0,0,1-.125-.026.136.136,0,0,1-.066-.043.1.1,0,0,1-.02-.059v-3.461h-.007l-1.233,3.457a.16.16,0,0,1-.043.071.209.209,0,0,1-.081.044.541.541,0,0,1-.13.021q-.079,0-.191,0a1.89,1.89,0,0,1-.191-.008.57.57,0,0,1-.13-.026.237.237,0,0,1-.081-.044.125.125,0,0,1-.039-.062l-1.19-3.457h-.007v3.461a.1.1,0,0,1-.018.059.127.127,0,0,1-.067.043.666.666,0,0,1-.127.026,1.985,1.985,0,0,1-.4,0,.628.628,0,0,1-.126-.026.126.126,0,0,1-.066-.043.1.1,0,0,1-.018-.059V183.2a.348.348,0,0,1,.089-.256.32.32,0,0,1,.237-.089h.565a1.192,1.192,0,0,1,.26.025.5.5,0,0,1,.187.082.465.465,0,0,1,.131.151,1.092,1.092,0,0,1,.092.232l.92,2.534h.013l.953-2.527a1.33,1.33,0,0,1,.094-.233.546.546,0,0,1,.118-.154.392.392,0,0,1,.159-.084.832.832,0,0,1,.214-.025h.582a.456.456,0,0,1,.153.023.262.262,0,0,1,.105.067.3.3,0,0,1,.063.108.465.465,0,0,1,.021.146Z" transform="translate(-324.195 -182.778)"/><path className="a" d="M378.341,186.859a.091.091,0,0,1-.021.059.149.149,0,0,1-.071.043.671.671,0,0,1-.131.026,2.223,2.223,0,0,1-.419,0,.672.672,0,0,1-.133-.026.149.149,0,0,1-.071-.043.091.091,0,0,1-.021-.059v-4.016a.091.091,0,0,1,.021-.059.15.15,0,0,1,.072-.043.728.728,0,0,1,.133-.026,1.782,1.782,0,0,1,.207-.01,1.825,1.825,0,0,1,.21.01.691.691,0,0,1,.131.026.15.15,0,0,1,.071.043.092.092,0,0,1,.021.059Z" transform="translate(-362.888 -182.649)"/><path className="a" d="M394.224,187a.13.13,0,0,1-.013.061.106.106,0,0,1-.063.041.62.62,0,0,1-.145.023q-.1.007-.26.007-.138,0-.22-.007a.49.49,0,0,1-.13-.025.141.141,0,0,1-.067-.046.254.254,0,0,1-.033-.067l-.381-.95q-.069-.161-.135-.286a.911.911,0,0,0-.146-.209.533.533,0,0,0-.186-.127.645.645,0,0,0-.243-.043h-.27v1.62a.092.092,0,0,1-.021.059.149.149,0,0,1-.071.043.674.674,0,0,1-.132.026,2.221,2.221,0,0,1-.419,0,.674.674,0,0,1-.133-.026.137.137,0,0,1-.069-.043.1.1,0,0,1-.02-.059v-3.862a.263.263,0,0,1,.074-.209.269.269,0,0,1,.182-.064h1.1q.168,0,.276.007t.2.016a1.79,1.79,0,0,1,.462.125,1.108,1.108,0,0,1,.348.232.966.966,0,0,1,.218.339,1.238,1.238,0,0,1,.076.449,1.312,1.312,0,0,1-.054.389.994.994,0,0,1-.159.314,1.046,1.046,0,0,1-.26.24,1.4,1.4,0,0,1-.352.164.984.984,0,0,1,.179.112.939.939,0,0,1,.158.159,1.531,1.531,0,0,1,.14.214,2.8,2.8,0,0,1,.128.271l.358.838q.049.125.066.182A.352.352,0,0,1,394.224,187Zm-1.114-2.886a.631.631,0,0,0-.1-.355.519.519,0,0,0-.312-.2,1.2,1.2,0,0,0-.15-.026,2.086,2.086,0,0,0-.232-.01h-.388v1.206h.44a1.059,1.059,0,0,0,.322-.044.646.646,0,0,0,.23-.125.513.513,0,0,0,.138-.192A.651.651,0,0,0,393.11,184.109Z" transform="translate(-374.69 -182.778)"/><path className="a" d="M420.765,186.655a1.149,1.149,0,0,1,.049.187.113.113,0,0,1-.026.1.215.215,0,0,1-.128.043q-.092.008-.253.008t-.261,0a.652.652,0,0,1-.143-.02.131.131,0,0,1-.069-.041.222.222,0,0,1-.033-.069l-.286-.855h-1.6l-.27.832a.266.266,0,0,1-.034.077.143.143,0,0,1-.069.049.5.5,0,0,1-.135.025q-.087.007-.228.007a2.175,2.175,0,0,1-.237-.01.18.18,0,0,1-.118-.047.128.128,0,0,1-.023-.107,1.084,1.084,0,0,1,.049-.184l1.311-3.773a.328.328,0,0,1,.046-.09.163.163,0,0,1,.084-.053.657.657,0,0,1,.159-.023q.1,0,.27,0,.194,0,.309,0a.816.816,0,0,1,.179.023.171.171,0,0,1,.092.054.321.321,0,0,1,.048.1Zm-1.952-3.119h0l-.6,1.808h1.206Z" transform="translate(-397.112 -182.649)"/><path className="a" d="M453.024,186.616a1.419,1.419,0,0,1-.008.166.5.5,0,0,1-.025.112.144.144,0,0,1-.041.064.089.089,0,0,1-.057.02h-1.949a.269.269,0,0,1-.182-.064.263.263,0,0,1-.074-.209v-3.862a.091.091,0,0,1,.021-.059.149.149,0,0,1,.071-.043.688.688,0,0,1,.133-.026,2.252,2.252,0,0,1,.419,0,.694.694,0,0,1,.132.026.151.151,0,0,1,.071.043.092.092,0,0,1,.021.059v3.421h1.338a.1.1,0,0,1,.057.018.132.132,0,0,1,.041.059.444.444,0,0,1,.025.108A1.416,1.416,0,0,1,453.024,186.616Z" transform="translate(-426.44 -182.649)"/><path className="a" d="M473.086,185.334a1.313,1.313,0,0,1-.125.588,1.218,1.218,0,0,1-.339.422,1.475,1.475,0,0,1-.5.255,2.124,2.124,0,0,1-.611.085,2.175,2.175,0,0,1-.409-.036,2.317,2.317,0,0,1-.334-.087,1.442,1.442,0,0,1-.242-.107.7.7,0,0,1-.14-.1.245.245,0,0,1-.061-.123,1.121,1.121,0,0,1-.018-.232c0-.068,0-.125.007-.171a.489.489,0,0,1,.021-.112.123.123,0,0,1,.039-.061.094.094,0,0,1,.058-.018.275.275,0,0,1,.13.054,2.255,2.255,0,0,0,.215.12,1.935,1.935,0,0,0,.314.12,1.485,1.485,0,0,0,.422.054.972.972,0,0,0,.283-.038.63.63,0,0,0,.212-.107.452.452,0,0,0,.133-.171.544.544,0,0,0,.046-.227.4.4,0,0,0-.079-.248.782.782,0,0,0-.205-.184,2.135,2.135,0,0,0-.287-.151q-.161-.071-.332-.15a3.033,3.033,0,0,1-.332-.179,1.339,1.339,0,0,1-.287-.24,1.132,1.132,0,0,1-.205-.33,1.193,1.193,0,0,1-.079-.457,1.209,1.209,0,0,1,.113-.537,1.1,1.1,0,0,1,.306-.385,1.3,1.3,0,0,1,.454-.228,1.982,1.982,0,0,1,.554-.076,2.01,2.01,0,0,1,.3.023,2.053,2.053,0,0,1,.283.062,1.573,1.573,0,0,1,.233.089.549.549,0,0,1,.135.082.244.244,0,0,1,.044.056.276.276,0,0,1,.02.061.646.646,0,0,1,.012.1c0,.038,0,.086,0,.143s0,.117-.005.161a.587.587,0,0,1-.016.109.128.128,0,0,1-.033.062.081.081,0,0,1-.058.02.273.273,0,0,1-.115-.046q-.079-.046-.194-.1a1.884,1.884,0,0,0-.266-.1,1.181,1.181,0,0,0-.332-.044.79.79,0,0,0-.247.035.51.51,0,0,0-.176.1.374.374,0,0,0-.105.146.476.476,0,0,0-.035.181.4.4,0,0,0,.077.245.737.737,0,0,0,.207.184,2.218,2.218,0,0,0,.294.151q.164.071.335.15a3.285,3.285,0,0,1,.335.179,1.356,1.356,0,0,1,.293.24,1.124,1.124,0,0,1,.207.329A1.153,1.153,0,0,1,473.086,185.334Z" transform="translate(-443.472 -182.281)"/></g><g transform="translate(16.921 9.531)"><path className="a" d="M370.582,257.607l.077-.184a3.023,3.023,0,0,1,.642-1.073.459.459,0,0,1-.037-.181,11.989,11.989,0,0,1,.4-1.474l.063-.2.063.2a12.006,12.006,0,0,1,.4,1.474.459.459,0,0,1-.037.181,3.028,3.028,0,0,1,.643,1.072l.077.184-.172-.1a1.863,1.863,0,0,0-.628-.253.459.459,0,0,0-.694,0,1.858,1.858,0,0,0-.627.253Zm1.146-.765.058.105a.33.33,0,0,0,.288.173,1.422,1.422,0,0,1,.524.178c-.21-.464-.441-.84-.524-.84l-.016,0-.131.006.074-.109a.33.33,0,0,0,.058-.187,9.588,9.588,0,0,0-.331-1.235,9.6,9.6,0,0,0-.331,1.235.327.327,0,0,0,.058.186l.075.108-.146-.007h0c-.085,0-.316.376-.525.84a1.416,1.416,0,0,1,.523-.178.332.332,0,0,0,.289-.173Z" transform="translate(-366.331 -254.501)"/><path className="a" d="M349.162,318.646H338.374l3.2-.757,4.394,0Zm-9.657-.132h8.527l-2.082-.493h-4.363Z" transform="translate(-338.374 -309.523)"/><path className="a" d="M359.878,282.135h-4.51v-.32a2.51,2.51,0,0,1-1.032-2.172c0-1.306.77-2.368,1.716-2.368a1.261,1.261,0,0,1,.285.035l.109.025-.075.083a3.154,3.154,0,0,0-.738,2.1,3.23,3.23,0,0,0,.642,1.985h.228a2.985,2.985,0,0,1-.69-1.985c0-1.4.825-2.54,1.839-2.54s1.839,1.139,1.839,2.54a2.984,2.984,0,0,1-.691,1.985h.228a3.226,3.226,0,0,0,.643-1.985,3.153,3.153,0,0,0-.738-2.1l-.075-.083.109-.025a1.26,1.26,0,0,1,.285-.035c.946,0,1.716,1.062,1.716,2.368a2.489,2.489,0,0,1-1.091,2.2ZM355.5,282h4.246v-.237l.036-.018a2.334,2.334,0,0,0,1.055-2.1c0-1.233-.711-2.236-1.584-2.236a.991.991,0,0,0-.146.011,3.511,3.511,0,0,1,0,4.193l-.02.024h-.614l.121-.114a2.773,2.773,0,0,0,.761-2c0-1.328-.766-2.408-1.707-2.408s-1.707,1.08-1.707,2.408a2.774,2.774,0,0,0,.761,2l.121.114h-.614l-.02-.024a3.512,3.512,0,0,1,0-4.192.979.979,0,0,0-.146-.011c-.874,0-1.584,1-1.584,2.236a2.357,2.357,0,0,0,1,2.076l.033.019Z" transform="translate(-352.228 -274.012)"/><path className="a" d="M377.017,280.537a.352.352,0,1,1,.346-.421h0a.352.352,0,0,1-.346.421Zm0-.572a.222.222,0,0,0-.043,0,.22.22,0,1,0,.259.172A.221.221,0,0,0,377.018,279.965Z" transform="translate(-371.612 -276.49)"/><path className="a" d="M377.018,287.871a.352.352,0,1,1,.345-.421h0a.352.352,0,0,1-.345.421Zm0-.572a.224.224,0,0,0-.043,0,.22.22,0,1,0,.043,0Z" transform="translate(-371.612 -282.856)"/><path className="a" d="M377.018,294.62a.352.352,0,1,1,.345-.421h0a.352.352,0,0,1-.345.421Zm0-.572a.221.221,0,0,0-.043,0,.22.22,0,1,0,.043,0Z" transform="translate(-371.612 -288.715)"/><path className="a" d="M377.018,301.12a.352.352,0,1,1,.345-.421h0a.352.352,0,0,1-.345.421Zm0-.572a.221.221,0,0,0-.043,0,.22.22,0,1,0,.043,0Z" transform="translate(-371.612 -294.357)"/><path className="a" d="M377.018,308.037a.352.352,0,0,1-.344-.283.352.352,0,1,1,.69-.138h0a.352.352,0,0,1-.276.414A.356.356,0,0,1,377.018,308.037Zm0-.572a.231.231,0,0,0-.043,0,.221.221,0,1,0,.043,0Z" transform="translate(-371.613 -300.36)"/></g><path className="a" d="M295.75,246.876l.325-.752a10.089,10.089,0,0,1,2.563-3.347c.492-.417.911-.737,1.248-.995.831-.636,1.175-.9,1.234-1.471a8.724,8.724,0,0,0,.04-1.316l-8.36-.065-6.082.064a8.7,8.7,0,0,0,.039,1.317c.059.572.4.835,1.234,1.471.336.257.755.578,1.248.995a9.252,9.252,0,0,1,2.484,3.3l.306.772-1.454-.948a26.906,26.906,0,0,0-5.763-2.473A18.723,18.723,0,0,0,282.62,243a2.347,2.347,0,0,1-1.32-.419c-.541-.5-.218-1.475-.18-1.585l.068-.194,2.6.24c.017-1.33.244-6.885,2.742-11.1a21.714,21.714,0,0,1,7.267-7.122l.123-.068.017.009.017-.009.123.067a21.712,21.712,0,0,1,7.267,7.122c2.5,4.212,2.725,9.766,2.742,11.1l2.6-.24.068.194c.039.11.361,1.086-.18,1.585a2.346,2.346,0,0,1-1.32.419,18.73,18.73,0,0,0-2.191.434A26.9,26.9,0,0,0,297.3,245.9c-.742.484-.841.544-.85.55ZM292.8,238.4l8.84.068.027.231a8.227,8.227,0,0,1-.022,1.664c-.083.8-.564,1.167-1.438,1.835-.332.254-.745.57-1.228.978a9.732,9.732,0,0,0-1.933,2.263,27.8,27.8,0,0,1,5.886-2.522,19.163,19.163,0,0,1,2.247-.445,2.1,2.1,0,0,0,1.039-.285c.179-.165.154-.551.094-.827l-2.758.255.006-.3c0-.064.1-6.449-2.669-11.111a21.173,21.173,0,0,0-6.953-6.863,21.173,21.173,0,0,0-6.953,6.863c-2.767,4.666-2.67,11.047-2.669,11.111l.006.3-2.758-.255c-.057.262-.093.654.093.826a2.1,2.1,0,0,0,1.039.285,19.156,19.156,0,0,1,2.248.445,27.988,27.988,0,0,1,5.837,2.491,9.071,9.071,0,0,0-1.884-2.232c-.483-.408-.9-.724-1.228-.978-.874-.669-1.356-1.037-1.438-1.835a8.228,8.228,0,0,1-.021-1.664l.027-.231Zm8.171-1.935H286.906l.054-.309a17.618,17.618,0,0,1,2.616-6.264,17.18,17.18,0,0,1,4.216-4.022l.146-.1.146.1A17.178,17.178,0,0,1,298.3,229.9a17.62,17.62,0,0,1,2.616,6.264Zm-13.425-.528h12.787a17.515,17.515,0,0,0-2.467-5.746,16.712,16.712,0,0,0-3.927-3.781,16.71,16.71,0,0,0-3.927,3.781A17.484,17.484,0,0,0,287.545,235.94Z" transform="translate(-271.642 -217.412)"/><g transform="translate(28.705 0.887)"><path className="a" d="M429.663,203.662a.264.264,0,0,1-.248-.172,15.822,15.822,0,0,0-1.211-2.576c-.153-.258-.321-.523-.5-.789a.264.264,0,0,1,.1-.384c.38-.188,1.761-.88,3.55-1.908a47.294,47.294,0,0,0,7.083-4.9,15.428,15.428,0,0,0,3.066-3.8.264.264,0,0,1,.49.06c.039.158.955,3.891.394,5.855-.416,1.457-2,2.954-5.479,5.165a32.947,32.947,0,0,1-7.165,3.429A.262.262,0,0,1,429.663,203.662Zm-1.355-3.581c.123.19.24.378.35.563a16.15,16.15,0,0,1,1.162,2.424,32.762,32.762,0,0,0,6.806-3.293c3.311-2.107,4.883-3.562,5.255-4.865a12.909,12.909,0,0,0-.255-4.936,16.169,16.169,0,0,1-2.835,3.358,47.823,47.823,0,0,1-7.171,4.959C430.113,199.157,428.892,199.788,428.308,200.081Z" transform="translate(-427.66 -189)"/><path className="a" d="M442.124,236.7c-.094,0-.208-.05-.308-.229a.258.258,0,0,1-.029-.078,22.247,22.247,0,0,0-.936-3.374.264.264,0,0,1,.167-.343,32.349,32.349,0,0,0,7.044-3.372c.264-.168.516-.332.758-.492l.021-.013a3.97,3.97,0,0,0,.595-.4l.015-.011c2.355-1.617,3.547-2.835,3.866-3.949a4.5,4.5,0,0,0,.146-.944.264.264,0,0,1,.041-.126c.091-.142.142-.224.142-.225a.264.264,0,0,1,.474.051,16.3,16.3,0,0,1,.814,4.523c.038,1.975-1.339,3.848-4.211,5.725-2.3,1.5-8.267,3.174-8.52,3.245A.288.288,0,0,1,442.124,236.7Zm-.685-3.607a22.915,22.915,0,0,1,.831,3.028c1.1-.316,6.172-1.817,8.164-3.119,2.707-1.77,4.006-3.495,3.972-5.273a15.271,15.271,0,0,0-.512-3.433q-.031.153-.07.289c-.359,1.256-1.575,2.522-4.067,4.234a4.518,4.518,0,0,1-.657.442c-.242.16-.493.322-.756.49A33.316,33.316,0,0,1,441.439,233.092Z" transform="translate(-439.096 -218.528)"/><path className="a" d="M448.68,293.263a.264.264,0,0,1-.263-.239c-.09-.939-.225-1.867-.4-2.759a.264.264,0,0,1,.426-.256c.963-.276,6.193-1.809,8.221-3.135.35-.229.681-.46.983-.686l1.51-1.058a.264.264,0,0,1,.414.191l.011.1a6.409,6.409,0,0,1-.48,3.7c-.924,1.523-3.755,2.531-5.966,3.11-2.3.6-3.845.916-4.4,1.024A.255.255,0,0,1,448.68,293.263Zm-.08-2.749c.131.708.236,1.435.314,2.171.707-.142,2.121-.446,4.087-.961,3.036-.794,4.989-1.788,5.648-2.873a5.414,5.414,0,0,0,.44-3.029l-1.134.795c-.3.228-.644.466-1,.7C454.842,288.7,449.627,290.221,448.6,290.513Z" transform="translate(-445.325 -272.402)"/><path className="a" d="M451.472,334.082a.264.264,0,0,1-.264-.266c0-.239,0-1.113-.12-2.341a.264.264,0,0,1,.213-.284c.555-.107,2.091-.42,4.371-1.017a23.318,23.318,0,0,0,2.456-.776.233.233,0,0,1,.1-.018c.415.01.654.039.664.04a.264.264,0,0,1,.23.231,2.462,2.462,0,0,1-.813,1.791,7.215,7.215,0,0,1-2.825,1.959,11.644,11.644,0,0,1-4.012.681Zm.163-2.419c.074.849.095,1.512.1,1.886a10.9,10.9,0,0,0,3.547-.635,6.647,6.647,0,0,0,2.635-1.824,2.578,2.578,0,0,0,.661-1.166c-.084-.005-.188-.011-.31-.014a24.025,24.025,0,0,1-2.463.775C453.777,331.215,452.33,331.524,451.635,331.663Z" transform="translate(-447.995 -310.853)"/></g><g transform="translate(0 0.887)"><path className="a" d="M230.108,203.663a.261.261,0,0,1-.081-.013,32.927,32.927,0,0,1-7.165-3.429c-3.476-2.212-5.063-3.708-5.479-5.165-.561-1.964.354-5.7.394-5.855a.264.264,0,0,1,.49-.06,15.473,15.473,0,0,0,3.066,3.8,47.28,47.28,0,0,0,7.083,4.9c1.789,1.028,3.169,1.72,3.55,1.908a.264.264,0,0,1,.1.384c-.177.264-.345.53-.5.789a15.8,15.8,0,0,0-1.211,2.576A.264.264,0,0,1,230.108,203.663Zm-11.963-13.688a12.906,12.906,0,0,0-.255,4.936c.372,1.3,1.944,2.758,5.255,4.865a32.747,32.747,0,0,0,6.805,3.293,16.114,16.114,0,0,1,1.162-2.424c.11-.185.227-.374.349-.563-.584-.294-1.8-.924-3.311-1.79a47.827,47.827,0,0,1-7.171-4.959A16.161,16.161,0,0,1,218.145,189.975Z" transform="translate(-216.272 -189.001)"/><path className="a" d="M222.971,236.7a.292.292,0,0,1-.081-.012c-.251-.07-6.223-1.743-8.518-3.244-2.871-1.877-4.249-3.75-4.211-5.725a16.294,16.294,0,0,1,.814-4.523.264.264,0,0,1,.474-.051s.052.083.142.226a.263.263,0,0,1,.041.126,4.51,4.51,0,0,0,.146.944c.318,1.114,1.511,2.332,3.866,3.949l.015.011a3.97,3.97,0,0,0,.594.4l.021.013c.242.16.494.323.758.492a32.33,32.33,0,0,0,7.044,3.371.264.264,0,0,1,.167.343,22.229,22.229,0,0,0-.936,3.374.265.265,0,0,1-.029.078C223.178,236.648,223.065,236.7,222.971,236.7Zm-11.77-12.4a15.273,15.273,0,0,0-.512,3.434c-.034,1.778,1.265,3.5,3.972,5.273,1.992,1.3,7.07,2.8,8.164,3.118a22.919,22.919,0,0,1,.831-3.028,33.3,33.3,0,0,1-6.906-3.343c-.263-.167-.514-.33-.756-.49a4.489,4.489,0,0,1-.657-.442c-2.492-1.711-3.708-2.978-4.067-4.234Q211.232,224.447,211.2,224.294Z" transform="translate(-210.16 -218.528)"/><path className="a" d="M232.565,293.263a.254.254,0,0,1-.05,0c-.56-.108-2.11-.424-4.4-1.024-2.211-.578-5.041-1.587-5.966-3.11a6.408,6.408,0,0,1-.48-3.7l.011-.1a.264.264,0,0,1,.414-.191l1.5,1.053q.462.346.989.691c2.03,1.327,7.262,2.86,8.221,3.135a.264.264,0,0,1,.426.256c-.177.893-.312,1.821-.4,2.759a.264.264,0,0,1-.263.239Zm-10.409-7.442a5.416,5.416,0,0,0,.44,3.029c.659,1.086,2.612,2.079,5.648,2.873,1.967.514,3.38.818,4.087.961.078-.735.183-1.462.313-2.171-1.021-.291-6.241-1.817-8.352-3.2-.36-.236-.7-.473-1.01-.705Z" transform="translate(-220.082 -272.402)"/><path className="a" d="M253.47,334.082h0a11.644,11.644,0,0,1-4.012-.681,7.214,7.214,0,0,1-2.825-1.959,2.463,2.463,0,0,1-.813-1.791.264.264,0,0,1,.23-.231c.01,0,.249-.03.664-.04a.241.241,0,0,1,.1.018,23.328,23.328,0,0,0,2.456.776c2.28.6,3.816.91,4.371,1.017a.264.264,0,0,1,.213.284c-.118,1.23-.122,2.1-.12,2.341a.264.264,0,0,1-.264.266Zm-7.1-4.158a2.587,2.587,0,0,0,.659,1.166,6.648,6.648,0,0,0,2.635,1.824,10.9,10.9,0,0,0,3.547.635c0-.373.025-1.036.1-1.886-.7-.139-2.141-.448-4.17-.978a24.054,24.054,0,0,1-2.463-.775C246.553,329.913,246.449,329.918,246.365,329.924Z" transform="translate(-241.108 -310.853)"/></g></g></svg>