<svg xmlns="http://www.w3.org/2000/svg" width="61.695" height="51.5" viewBox="0 0 61.695 51.5"><defs><style>.a,.c{fill:#fff;}.b{fill:#ee405e;}.c{font-size:6px;font-family:SegoeUI, Segoe UI;}</style></defs><g transform="translate(-46.305 -26.5)"><g transform="translate(56.688 26.5)"><path className="a" d="M272.315,188.176a1.605,1.605,0,0,1,.068.26.157.157,0,0,1-.036.143.3.3,0,0,1-.178.059q-.127.011-.35.011t-.362-.007a.9.9,0,0,1-.2-.027.182.182,0,0,1-.1-.057.309.309,0,0,1-.045-.1l-.4-1.184H268.51l-.373,1.152a.374.374,0,0,1-.048.107.2.2,0,0,1-.1.068.7.7,0,0,1-.186.034q-.121.009-.316.009a3.025,3.025,0,0,1-.328-.014.25.25,0,0,1-.164-.066.178.178,0,0,1-.032-.148,1.485,1.485,0,0,1,.068-.255l1.816-5.226a.449.449,0,0,1,.064-.125.224.224,0,0,1,.116-.073.909.909,0,0,1,.221-.032q.141-.007.373-.007.268,0,.428.007a1.131,1.131,0,0,1,.248.032.237.237,0,0,1,.127.075.441.441,0,0,1,.066.137Zm-2.7-4.32h0l-.833,2.5h1.671Z" transform="translate(-266.964 -182.627)"/><path className="a" d="M305.642,185.713a4.024,4.024,0,0,1-.212,1.386,2.352,2.352,0,0,1-.608.94,2.44,2.44,0,0,1-.963.535,4.717,4.717,0,0,1-1.35.171H301.1a.372.372,0,0,1-.253-.089.364.364,0,0,1-.1-.289v-5.135a.365.365,0,0,1,.1-.289.373.373,0,0,1,.253-.089h1.511a4.223,4.223,0,0,1,1.336.184,2.417,2.417,0,0,1,.924.546,2.342,2.342,0,0,1,.571.894A3.572,3.572,0,0,1,305.642,185.713Zm-1.238.041a2.965,2.965,0,0,0-.1-.779,1.655,1.655,0,0,0-.314-.624,1.456,1.456,0,0,0-.555-.412,2.254,2.254,0,0,0-.89-.148h-.605V187.8h.624a2.352,2.352,0,0,0,.828-.127,1.383,1.383,0,0,0,.562-.385,1.659,1.659,0,0,0,.337-.639A3.2,3.2,0,0,0,304.4,185.754Z" transform="translate(-294.573 -182.749)"/><path className="a" d="M339.762,188.58a.142.142,0,0,1-.025.082.175.175,0,0,1-.091.059.875.875,0,0,1-.175.036,2.306,2.306,0,0,1-.278.014,2.263,2.263,0,0,1-.273-.014.824.824,0,0,1-.173-.036.189.189,0,0,1-.091-.059.132.132,0,0,1-.027-.082v-4.793h-.009l-1.707,4.789a.221.221,0,0,1-.059.1.29.29,0,0,1-.112.061.75.75,0,0,1-.18.03q-.109.007-.264.007a2.639,2.639,0,0,1-.264-.011.794.794,0,0,1-.18-.037.327.327,0,0,1-.112-.061.174.174,0,0,1-.054-.086l-1.648-4.789h-.009v4.793a.142.142,0,0,1-.025.082.176.176,0,0,1-.093.059.924.924,0,0,1-.175.036,2.758,2.758,0,0,1-.549,0,.872.872,0,0,1-.175-.036.173.173,0,0,1-.091-.059.14.14,0,0,1-.025-.082v-5.248a.481.481,0,0,1,.123-.355.443.443,0,0,1,.328-.123h.783a1.648,1.648,0,0,1,.359.034.7.7,0,0,1,.26.114.643.643,0,0,1,.182.209,1.508,1.508,0,0,1,.127.321l1.275,3.51h.018l1.32-3.5a1.833,1.833,0,0,1,.13-.323.753.753,0,0,1,.164-.214.542.542,0,0,1,.221-.116,1.152,1.152,0,0,1,.3-.034h.806a.632.632,0,0,1,.212.032.363.363,0,0,1,.146.093.412.412,0,0,1,.087.15.643.643,0,0,1,.029.2Z" transform="translate(-320.845 -182.749)"/><path className="a" d="M378.675,188.459a.126.126,0,0,1-.03.082.205.205,0,0,1-.1.059.932.932,0,0,1-.182.036,3.081,3.081,0,0,1-.581,0,.933.933,0,0,1-.184-.036.206.206,0,0,1-.1-.059.126.126,0,0,1-.029-.082V182.9a.127.127,0,0,1,.029-.082.209.209,0,0,1,.1-.059,1.016,1.016,0,0,1,.184-.037,2.475,2.475,0,0,1,.287-.014,2.534,2.534,0,0,1,.291.014.963.963,0,0,1,.182.037.207.207,0,0,1,.1.059.127.127,0,0,1,.03.082Z" transform="translate(-357.272 -182.627)"/><path className="a" d="M395.439,188.59a.179.179,0,0,1-.018.084.146.146,0,0,1-.087.057.862.862,0,0,1-.2.032q-.132.009-.36.009-.191,0-.3-.009a.678.678,0,0,1-.18-.034.2.2,0,0,1-.093-.064.352.352,0,0,1-.045-.093l-.528-1.315q-.1-.223-.187-.4a1.268,1.268,0,0,0-.2-.289.739.739,0,0,0-.257-.175.894.894,0,0,0-.337-.059h-.373v2.244a.127.127,0,0,1-.03.082.205.205,0,0,1-.1.059.932.932,0,0,1-.182.036,3.086,3.086,0,0,1-.58,0,.935.935,0,0,1-.184-.036.19.19,0,0,1-.1-.059.133.133,0,0,1-.027-.082v-5.349a.365.365,0,0,1,.1-.289.373.373,0,0,1,.253-.089h1.525q.232,0,.382.009t.273.023a2.477,2.477,0,0,1,.64.173,1.533,1.533,0,0,1,.483.321,1.334,1.334,0,0,1,.3.469,1.714,1.714,0,0,1,.105.621,1.82,1.82,0,0,1-.075.539,1.379,1.379,0,0,1-.221.435,1.449,1.449,0,0,1-.36.332,1.945,1.945,0,0,1-.487.228,1.361,1.361,0,0,1,.248.155,1.305,1.305,0,0,1,.218.221,2.131,2.131,0,0,1,.194.3,3.884,3.884,0,0,1,.177.376l.5,1.161q.068.173.091.253A.491.491,0,0,1,395.439,188.59Zm-1.543-4a.874.874,0,0,0-.132-.492.719.719,0,0,0-.432-.282,1.67,1.67,0,0,0-.207-.036,2.892,2.892,0,0,0-.321-.014h-.537v1.671h.61a1.468,1.468,0,0,0,.446-.061.892.892,0,0,0,.319-.173.711.711,0,0,0,.191-.266A.9.9,0,0,0,393.9,184.593Z" transform="translate(-368.383 -182.749)"/><path className="a" d="M422.253,188.176a1.6,1.6,0,0,1,.068.26.157.157,0,0,1-.036.143.3.3,0,0,1-.178.059q-.128.011-.351.011t-.362-.007a.9.9,0,0,1-.2-.027.181.181,0,0,1-.1-.057.306.306,0,0,1-.046-.1l-.4-1.184h-2.212l-.373,1.152a.372.372,0,0,1-.048.107.2.2,0,0,1-.1.068.7.7,0,0,1-.186.034q-.121.009-.316.009a3.025,3.025,0,0,1-.328-.014.25.25,0,0,1-.164-.066.178.178,0,0,1-.032-.148,1.494,1.494,0,0,1,.068-.255l1.816-5.226a.453.453,0,0,1,.064-.125.225.225,0,0,1,.116-.073.909.909,0,0,1,.221-.032q.141-.007.373-.007.268,0,.428.007a1.131,1.131,0,0,1,.248.032.237.237,0,0,1,.127.075.443.443,0,0,1,.066.137Zm-2.7-4.32h0l-.833,2.5h1.671Z" transform="translate(-389.493 -182.627)"/><path className="a" d="M453.923,188.122a1.961,1.961,0,0,1-.012.23.693.693,0,0,1-.034.155.2.2,0,0,1-.057.089.123.123,0,0,1-.08.027h-2.7a.372.372,0,0,1-.253-.089.364.364,0,0,1-.1-.289V182.9a.126.126,0,0,1,.029-.082.207.207,0,0,1,.1-.059.959.959,0,0,1,.184-.037,3.12,3.12,0,0,1,.58,0,.966.966,0,0,1,.182.037.208.208,0,0,1,.1.059.128.128,0,0,1,.03.082v4.739h1.853a.131.131,0,0,1,.08.025.182.182,0,0,1,.057.082.615.615,0,0,1,.034.15A1.958,1.958,0,0,1,453.923,188.122Z" transform="translate(-417.103 -182.627)"/><path className="a" d="M474.156,186.51a1.82,1.82,0,0,1-.173.815,1.688,1.688,0,0,1-.469.585,2.043,2.043,0,0,1-.692.353,2.942,2.942,0,0,1-.846.118,3.011,3.011,0,0,1-.567-.05,3.213,3.213,0,0,1-.462-.121,2,2,0,0,1-.334-.148.972.972,0,0,1-.194-.137.34.34,0,0,1-.084-.171,1.548,1.548,0,0,1-.025-.321c0-.094,0-.173.009-.237a.681.681,0,0,1,.03-.155.17.17,0,0,1,.055-.084.131.131,0,0,1,.08-.025.381.381,0,0,1,.18.075,3.116,3.116,0,0,0,.3.166,2.683,2.683,0,0,0,.435.166,2.057,2.057,0,0,0,.585.075,1.344,1.344,0,0,0,.391-.052.87.87,0,0,0,.294-.148.627.627,0,0,0,.185-.237.754.754,0,0,0,.064-.314.55.55,0,0,0-.109-.344,1.083,1.083,0,0,0-.284-.255,2.967,2.967,0,0,0-.4-.209q-.223-.1-.46-.207a4.208,4.208,0,0,1-.46-.248,1.852,1.852,0,0,1-.4-.332,1.569,1.569,0,0,1-.285-.458,1.653,1.653,0,0,1-.109-.633,1.674,1.674,0,0,1,.157-.744,1.53,1.53,0,0,1,.423-.533,1.8,1.8,0,0,1,.628-.316,2.743,2.743,0,0,1,.767-.1,2.783,2.783,0,0,1,.419.032,2.838,2.838,0,0,1,.392.087,2.179,2.179,0,0,1,.323.123.76.76,0,0,1,.187.114.338.338,0,0,1,.061.077.387.387,0,0,1,.027.084.9.9,0,0,1,.016.132c0,.053,0,.119,0,.2s0,.162-.007.223a.8.8,0,0,1-.023.15.179.179,0,0,1-.045.086.113.113,0,0,1-.08.027.378.378,0,0,1-.159-.064q-.109-.064-.269-.139a2.612,2.612,0,0,0-.369-.137,1.634,1.634,0,0,0-.46-.061,1.1,1.1,0,0,0-.341.048.7.7,0,0,0-.243.132.517.517,0,0,0-.146.2.659.659,0,0,0-.048.25.551.551,0,0,0,.107.339,1.021,1.021,0,0,0,.287.255,3.084,3.084,0,0,0,.407.21q.228.1.464.207a4.558,4.558,0,0,1,.464.248,1.882,1.882,0,0,1,.405.332,1.558,1.558,0,0,1,.287.455A1.594,1.594,0,0,1,474.156,186.51Z" transform="translate(-433.139 -182.281)"/></g><g transform="translate(69.742 39.701)"><path className="b" d="M370.582,258.8l.106-.255a4.187,4.187,0,0,1,.89-1.486.635.635,0,0,1-.051-.25,16.607,16.607,0,0,1,.555-2.041l.087-.27.087.27a16.63,16.63,0,0,1,.555,2.041.634.634,0,0,1-.051.25,4.192,4.192,0,0,1,.89,1.485l.107.255-.238-.141a2.581,2.581,0,0,0-.869-.351.635.635,0,0,0-.961,0,2.574,2.574,0,0,0-.869.351Zm1.587-1.06.08.146a.457.457,0,0,0,.4.239,1.97,1.97,0,0,1,.726.246c-.29-.643-.611-1.164-.726-1.164l-.022,0-.182.008.1-.151a.457.457,0,0,0,.08-.259,13.282,13.282,0,0,0-.459-1.71,13.3,13.3,0,0,0-.459,1.71.453.453,0,0,0,.08.258l.1.15-.2-.009h0c-.117,0-.437.52-.727,1.163a1.961,1.961,0,0,1,.725-.246.459.459,0,0,0,.4-.239Z" transform="translate(-364.695 -254.501)"/><path className="b" d="M353.316,318.937H338.374l4.439-1.048,6.085,0Zm-13.376-.183h11.81l-2.884-.683h-6.043Z" transform="translate(-338.374 -306.302)"/><path className="b" d="M362.012,284.121h-6.247v-.443a3.476,3.476,0,0,1-1.43-3.008c0-1.809,1.066-3.28,2.377-3.28a1.747,1.747,0,0,1,.395.049l.151.035-.1.115a4.369,4.369,0,0,0-1.022,2.908,4.474,4.474,0,0,0,.89,2.749h.316a4.135,4.135,0,0,1-.956-2.749c0-1.94,1.143-3.518,2.548-3.518s2.547,1.578,2.547,3.518a4.134,4.134,0,0,1-.956,2.749h.315a4.468,4.468,0,0,0,.891-2.749,4.367,4.367,0,0,0-1.022-2.908l-.1-.115.151-.035a1.745,1.745,0,0,1,.395-.049c1.311,0,2.377,1.471,2.377,3.28a3.447,3.447,0,0,1-1.511,3.052Zm-6.064-.183h5.881v-.328l.05-.025a3.232,3.232,0,0,0,1.461-2.915c0-1.708-.984-3.1-2.194-3.1a1.381,1.381,0,0,0-.2.015,4.863,4.863,0,0,1,.006,5.807l-.027.034h-.85l.168-.158a3.84,3.84,0,0,0,1.054-2.774c0-1.839-1.06-3.335-2.364-3.335s-2.365,1.5-2.365,3.335a3.841,3.841,0,0,0,1.054,2.774l.168.158h-.851l-.028-.034a4.865,4.865,0,0,1,.007-5.807,1.366,1.366,0,0,0-.2-.015c-1.21,0-2.194,1.389-2.194,3.1a3.264,3.264,0,0,0,1.383,2.876l.046.026Z" transform="translate(-351.417 -272.87)"/><path className="b" d="M377.153,280.808a.488.488,0,1,1,.479-.583h0a.488.488,0,0,1-.382.574A.494.494,0,0,1,377.153,280.808Zm0-.792a.3.3,0,1,0,.3.245A.3.3,0,0,0,377.154,280.016Z" transform="translate(-369.667 -275.203)"/><path className="b" d="M377.154,288.142a.487.487,0,1,1,.478-.583h0a.488.488,0,0,1-.478.583Zm0-.792a.3.3,0,0,0-.3.364.3.3,0,1,0,.3-.364Z" transform="translate(-369.667 -281.196)"/><path className="b" d="M377.154,294.891a.487.487,0,1,1,.478-.583h0a.488.488,0,0,1-.478.583Zm0-.792a.3.3,0,0,0-.3.364.3.3,0,1,0,.3-.364Z" transform="translate(-369.667 -286.712)"/><path className="b" d="M377.154,301.391a.487.487,0,1,1,.478-.583h0a.487.487,0,0,1-.478.583Zm0-.792a.3.3,0,0,0-.3.364.3.3,0,1,0,.3-.364Z" transform="translate(-369.667 -292.023)"/><path className="b" d="M377.153,308.308a.488.488,0,0,1-.477-.392.487.487,0,1,1,.956-.191h0a.488.488,0,0,1-.382.574A.5.5,0,0,1,377.153,308.308Zm0-.792a.322.322,0,0,0-.06.006.306.306,0,1,0,.06-.006Z" transform="translate(-369.667 -297.675)"/></g><path className="b" d="M301.434,256.164l.45-1.042a13.976,13.976,0,0,1,3.55-4.635c.682-.577,1.262-1.021,1.728-1.378,1.151-.881,1.627-1.245,1.709-2.037a12.082,12.082,0,0,0,.055-1.823l-11.579-.09-8.423.089a12.044,12.044,0,0,0,.055,1.824c.082.792.558,1.156,1.709,2.037.466.357,1.046.8,1.728,1.378a12.814,12.814,0,0,1,3.44,4.577l.424,1.069-2.014-1.314a37.264,37.264,0,0,0-7.981-3.426,25.935,25.935,0,0,0-3.034-.6,3.251,3.251,0,0,1-1.828-.581c-.749-.692-.3-2.044-.249-2.2l.095-.269,3.6.333c.024-1.843.338-9.535,3.8-15.369a30.074,30.074,0,0,1,10.065-9.864l.17-.094.024.012.024-.012.17.093a30.072,30.072,0,0,1,10.065,9.864c3.46,5.834,3.774,13.527,3.8,15.369l3.6-.333.095.269c.053.152.5,1.5-.249,2.2a3.25,3.25,0,0,1-1.828.581,25.936,25.936,0,0,0-3.034.6,37.263,37.263,0,0,0-7.981,3.426c-1.027.67-1.165.754-1.177.761Zm-4.089-11.736,12.244.095.038.32a11.385,11.385,0,0,1-.03,2.3c-.114,1.105-.781,1.616-1.992,2.542-.46.352-1.032.79-1.7,1.355a13.477,13.477,0,0,0-2.677,3.134,38.5,38.5,0,0,1,8.152-3.493,26.532,26.532,0,0,1,3.113-.617,2.914,2.914,0,0,0,1.439-.395c.247-.228.213-.763.13-1.145l-3.82.353.008-.409c0-.089.133-8.933-3.7-15.389a29.326,29.326,0,0,0-9.63-9.505,29.325,29.325,0,0,0-9.63,9.505c-3.833,6.462-3.7,15.3-3.7,15.389l.008.409-3.82-.353c-.079.363-.129.906.129,1.145a2.913,2.913,0,0,0,1.438.395,26.52,26.52,0,0,1,3.113.617,38.764,38.764,0,0,1,8.085,3.45,12.562,12.562,0,0,0-2.609-3.092c-.668-.565-1.241-1-1.7-1.355-1.211-.926-1.878-1.437-1.992-2.542a11.4,11.4,0,0,1-.03-2.3l.038-.319Zm11.318-2.68H289.185l.075-.428a24.4,24.4,0,0,1,3.623-8.675,23.8,23.8,0,0,1,5.84-5.57l.2-.133.2.133a23.794,23.794,0,0,1,5.84,5.57,24.4,24.4,0,0,1,3.623,8.675Zm-18.595-.731h17.711a24.259,24.259,0,0,0-3.417-7.959,23.149,23.149,0,0,0-5.438-5.236,23.145,23.145,0,0,0-5.439,5.236A24.218,24.218,0,0,0,290.068,241.018Z" transform="translate(-221.738 -188.854)"/><g transform="translate(86.063 27.729)"><path className="b" d="M430.434,209.308a.366.366,0,0,1-.343-.239,21.913,21.913,0,0,0-1.678-3.568c-.212-.357-.444-.725-.691-1.092a.366.366,0,0,1,.142-.532c.527-.26,2.439-1.219,4.916-2.642a65.51,65.51,0,0,0,9.81-6.78,21.37,21.37,0,0,0,4.246-5.26.366.366,0,0,1,.678.083c.054.219,1.322,5.39.545,8.11-.577,2.018-2.775,4.091-7.589,7.154a45.632,45.632,0,0,1-9.924,4.749A.365.365,0,0,1,430.434,209.308Zm-1.876-4.96c.17.263.332.524.484.78a22.356,22.356,0,0,1,1.61,3.357,45.375,45.375,0,0,0,9.426-4.56c4.586-2.918,6.763-4.934,7.278-6.738.54-1.89-.026-5.239-.354-6.836A22.39,22.39,0,0,1,443.077,195a66.235,66.235,0,0,1-9.932,6.868C431.058,203.068,429.367,203.941,428.558,204.348Z" transform="translate(-427.66 -189)"/><path className="b" d="M442.62,241.967c-.13,0-.288-.069-.427-.318a.356.356,0,0,1-.04-.108,30.8,30.8,0,0,0-1.3-4.673.366.366,0,0,1,.231-.475,44.8,44.8,0,0,0,9.756-4.67c.366-.233.715-.459,1.05-.681l.029-.018a5.5,5.5,0,0,0,.823-.555l.021-.015c3.262-2.239,4.913-3.926,5.354-5.47a6.232,6.232,0,0,0,.2-1.308.367.367,0,0,1,.057-.174c.126-.2.2-.311.2-.312a.366.366,0,0,1,.656.071,22.58,22.58,0,0,1,1.128,6.265c.052,2.735-1.855,5.329-5.832,7.929-3.18,2.079-11.45,4.4-11.8,4.494A.4.4,0,0,1,442.62,241.967Zm-.949-5a31.728,31.728,0,0,1,1.152,4.193c1.519-.437,8.549-2.516,11.307-4.319,3.749-2.451,5.549-4.84,5.5-7.3a21.148,21.148,0,0,0-.71-4.755q-.042.211-.1.4c-.5,1.739-2.182,3.494-5.633,5.864a6.26,6.26,0,0,1-.909.612c-.335.221-.683.446-1.047.678A46.142,46.142,0,0,1,441.672,236.971Z" transform="translate(-438.426 -216.8)"/><path className="b" d="M448.938,296.412a.365.365,0,0,1-.364-.331c-.124-1.3-.312-2.586-.557-3.821a.366.366,0,0,1,.59-.354c1.334-.382,8.577-2.505,11.387-4.342.485-.317.943-.637,1.361-.95l2.092-1.466a.366.366,0,0,1,.574.264l.015.142c.091.847.368,3.424-.665,5.126-1.28,2.109-5.2,3.506-8.263,4.307-3.179.831-5.325,1.269-6.1,1.419A.362.362,0,0,1,448.938,296.412Zm-.111-3.808c.181.98.326,1.988.434,3.006.98-.2,2.937-.618,5.661-1.331,4.205-1.1,6.91-2.476,7.823-3.979a7.5,7.5,0,0,0,.61-4.195l-1.571,1.1c-.421.316-.892.645-1.39.97C457.472,290.087,450.249,292.2,448.828,292.6Z" transform="translate(-444.29 -267.519)"/><path className="b" d="M451.62,335.892a.365.365,0,0,1-.366-.368c0-.331,0-1.542-.166-3.242a.365.365,0,0,1,.295-.394c.768-.148,2.9-.582,6.054-1.408a32.307,32.307,0,0,0,3.4-1.075.322.322,0,0,1,.141-.024c.575.014.906.054.92.056a.365.365,0,0,1,.319.319,3.41,3.41,0,0,1-1.126,2.48,9.994,9.994,0,0,1-3.912,2.713,16.128,16.128,0,0,1-5.557.944Zm.226-3.35c.1,1.176.131,2.095.138,2.612a15.1,15.1,0,0,0,4.913-.88,9.205,9.205,0,0,0,3.65-2.527,3.569,3.569,0,0,0,.916-1.615c-.117-.008-.261-.015-.43-.02a33.3,33.3,0,0,1-3.411,1.074C454.812,331.922,452.809,332.349,451.847,332.542Z" transform="translate(-446.805 -303.719)"/></g><g transform="translate(46.305 27.729)"><path className="b" d="M235.078,209.308a.362.362,0,0,1-.112-.018,45.6,45.6,0,0,1-9.924-4.749c-4.814-3.063-7.012-5.136-7.589-7.154-.777-2.72.491-7.891.545-8.11a.366.366,0,0,1,.678-.083,21.431,21.431,0,0,0,4.246,5.26,65.484,65.484,0,0,0,9.81,6.78c2.478,1.424,4.389,2.382,4.916,2.642a.366.366,0,0,1,.142.532c-.246.366-.478.734-.691,1.092a21.881,21.881,0,0,0-1.678,3.568A.366.366,0,0,1,235.078,209.308ZM218.509,190.35c-.327,1.6-.894,4.946-.354,6.836.516,1.8,2.692,3.82,7.278,6.738a45.355,45.355,0,0,0,9.426,4.561,22.322,22.322,0,0,1,1.61-3.357c.152-.257.315-.518.484-.78-.809-.407-2.5-1.28-4.587-2.479A66.252,66.252,0,0,1,222.435,195,22.385,22.385,0,0,1,218.509,190.35Z" transform="translate(-215.914 -189.001)"/><path className="b" d="M227.9,241.966a.405.405,0,0,1-.112-.016c-.348-.1-8.619-2.415-11.8-4.493-3.977-2.6-5.885-5.194-5.832-7.929a22.57,22.57,0,0,1,1.128-6.265.366.366,0,0,1,.656-.071s.071.116.2.313a.365.365,0,0,1,.057.174,6.246,6.246,0,0,0,.2,1.308c.441,1.543,2.092,3.23,5.354,5.47l.021.016a5.5,5.5,0,0,0,.823.555l.03.018c.336.222.685.448,1.051.681a44.781,44.781,0,0,0,9.756,4.669.366.366,0,0,1,.231.475,30.791,30.791,0,0,0-1.3,4.673.367.367,0,0,1-.04.108C228.191,241.9,228.035,241.966,227.9,241.966Zm-16.3-17.181a21.156,21.156,0,0,0-.71,4.756c-.047,2.463,1.752,4.852,5.5,7.3,2.759,1.8,9.793,3.883,11.307,4.319a31.752,31.752,0,0,1,1.151-4.193,46.116,46.116,0,0,1-9.565-4.63c-.364-.232-.712-.457-1.047-.678a6.216,6.216,0,0,1-.91-.612c-3.451-2.37-5.136-4.124-5.633-5.864Q211.645,225,211.6,224.785Z" transform="translate(-210.16 -216.799)"/><path className="b" d="M236.791,296.412a.362.362,0,0,1-.069-.007c-.775-.15-2.922-.587-6.1-1.419-3.063-.8-6.983-2.2-8.263-4.307-1.033-1.7-.756-4.278-.665-5.125l.015-.142a.366.366,0,0,1,.574-.264l2.082,1.459q.64.48,1.37.957c2.811,1.838,10.058,3.962,11.387,4.342a.366.366,0,0,1,.59.354c-.245,1.237-.432,2.522-.557,3.821a.365.365,0,0,1-.364.331Zm-14.418-10.307a7.5,7.5,0,0,0,.61,4.2c.913,1.5,3.618,2.88,7.823,3.979,2.724.713,4.682,1.133,5.661,1.331.107-1.018.253-2.025.434-3.006-1.414-.4-8.643-2.516-11.567-4.428-.5-.326-.97-.655-1.4-.977Z" transform="translate(-219.501 -267.519)"/><path className="b" d="M256.418,335.893h0a16.126,16.126,0,0,1-5.557-.944,9.991,9.991,0,0,1-3.912-2.713,3.411,3.411,0,0,1-1.127-2.48.366.366,0,0,1,.319-.319c.014,0,.345-.041.92-.056a.332.332,0,0,1,.141.024,32.347,32.347,0,0,0,3.4,1.075c3.158.826,5.286,1.26,6.054,1.408a.365.365,0,0,1,.294.394c-.163,1.7-.169,2.912-.166,3.242a.366.366,0,0,1-.366.368Zm-9.841-5.759a3.582,3.582,0,0,0,.913,1.615,9.208,9.208,0,0,0,3.65,2.527,15.1,15.1,0,0,0,4.913.88c.007-.517.035-1.434.138-2.612-.963-.193-2.966-.62-5.776-1.355A33.272,33.272,0,0,1,247,330.114C246.837,330.119,246.694,330.126,246.578,330.133Z" transform="translate(-239.296 -303.72)"/></g><text className="c" transform="translate(47 76)"><tspan x="0" y="0">Travel&amp; Transportation</tspan></text></g></svg>