<svg xmlns="http://www.w3.org/2000/svg" width="64.132" height="46.5" viewBox="0 0 64.132 46.5"><defs><style>.a,.b{fill:#ee405e;}.b{font-size:6px;font-family:SegoeUI, Segoe UI;}</style></defs><g transform="translate(7910 11615.5)"><g transform="translate(-7892.216 -11615.5)"><path className="a" d="M271.8,187.647a1.449,1.449,0,0,1,.062.234.142.142,0,0,1-.033.129.269.269,0,0,1-.161.053q-.115.01-.316.01t-.327-.006a.815.815,0,0,1-.179-.025.165.165,0,0,1-.086-.052.279.279,0,0,1-.041-.086l-.358-1.069h-2l-.337,1.04a.338.338,0,0,1-.043.1.178.178,0,0,1-.087.062.63.63,0,0,1-.168.031q-.109.008-.286.008a2.729,2.729,0,0,1-.3-.012A.226.226,0,0,1,267,188a.161.161,0,0,1-.029-.134,1.342,1.342,0,0,1,.062-.23l1.641-4.72a.406.406,0,0,1,.058-.113.2.2,0,0,1,.1-.066.822.822,0,0,1,.2-.029q.127-.006.337-.006.242,0,.387.006a1.022,1.022,0,0,1,.224.029.215.215,0,0,1,.115.068.4.4,0,0,1,.06.123Zm-2.442-3.9h0l-.752,2.261h1.509Z" transform="translate(-266.964 -182.635)"/><path className="a" d="M305.169,185.436a3.635,3.635,0,0,1-.191,1.252,2.124,2.124,0,0,1-.549.849,2.2,2.2,0,0,1-.87.483,4.26,4.26,0,0,1-1.219.154H301.07a.336.336,0,0,1-.228-.08.329.329,0,0,1-.092-.261V183.2a.33.33,0,0,1,.092-.261.337.337,0,0,1,.228-.08h1.365a3.815,3.815,0,0,1,1.207.167,2.184,2.184,0,0,1,.834.493,2.116,2.116,0,0,1,.516.808A3.227,3.227,0,0,1,305.169,185.436Zm-1.118.037a2.677,2.677,0,0,0-.088-.7,1.5,1.5,0,0,0-.284-.563,1.315,1.315,0,0,0-.5-.372,2.036,2.036,0,0,0-.8-.134h-.547v3.618h.563a2.125,2.125,0,0,0,.748-.115,1.249,1.249,0,0,0,.508-.348,1.5,1.5,0,0,0,.3-.578A2.889,2.889,0,0,0,304.051,185.473Z" transform="translate(-295.171 -182.759)"/><path className="a" d="M339.1,188.026a.128.128,0,0,1-.023.074.158.158,0,0,1-.082.053.79.79,0,0,1-.158.033,2.084,2.084,0,0,1-.251.012,2.044,2.044,0,0,1-.247-.012.744.744,0,0,1-.156-.033.17.17,0,0,1-.082-.053.12.12,0,0,1-.025-.074V183.7h-.008l-1.542,4.325a.2.2,0,0,1-.053.088.262.262,0,0,1-.1.056.678.678,0,0,1-.162.027q-.1.006-.238.006a2.376,2.376,0,0,1-.239-.01.716.716,0,0,1-.162-.033.3.3,0,0,1-.1-.055.157.157,0,0,1-.049-.078l-1.489-4.325h-.008v4.33a.128.128,0,0,1-.023.074.159.159,0,0,1-.084.053.834.834,0,0,1-.158.033,2.489,2.489,0,0,1-.5,0,.788.788,0,0,1-.158-.033.157.157,0,0,1-.082-.053.126.126,0,0,1-.023-.074v-4.741a.435.435,0,0,1,.111-.321.4.4,0,0,1,.3-.111h.707a1.489,1.489,0,0,1,.325.031.63.63,0,0,1,.234.1.581.581,0,0,1,.164.189,1.362,1.362,0,0,1,.115.29l1.151,3.17h.016l1.193-3.162a1.657,1.657,0,0,1,.117-.292.679.679,0,0,1,.148-.193.489.489,0,0,1,.2-.1,1.041,1.041,0,0,1,.267-.031h.728a.571.571,0,0,1,.191.029.327.327,0,0,1,.132.084.372.372,0,0,1,.078.136.581.581,0,0,1,.027.183Z" transform="translate(-322.011 -182.759)"/><path className="a" d="M378.558,187.9a.114.114,0,0,1-.027.074.186.186,0,0,1-.088.053.841.841,0,0,1-.164.033,2.78,2.78,0,0,1-.524,0,.842.842,0,0,1-.166-.033.186.186,0,0,1-.089-.053.114.114,0,0,1-.027-.074v-5.025a.115.115,0,0,1,.027-.074.189.189,0,0,1,.091-.053.918.918,0,0,1,.167-.033,2.236,2.236,0,0,1,.259-.012,2.289,2.289,0,0,1,.263.012.87.87,0,0,1,.164.033.187.187,0,0,1,.088.053.115.115,0,0,1,.027.074Z" transform="translate(-359.226 -182.635)"/><path className="a" d="M395.017,188.035a.162.162,0,0,1-.017.076.132.132,0,0,1-.078.051.777.777,0,0,1-.181.029q-.119.008-.325.008-.173,0-.275-.008a.612.612,0,0,1-.162-.031.176.176,0,0,1-.084-.058.318.318,0,0,1-.041-.084l-.477-1.188q-.086-.2-.169-.358a1.145,1.145,0,0,0-.183-.261.668.668,0,0,0-.232-.158.807.807,0,0,0-.3-.053h-.337v2.027a.115.115,0,0,1-.027.074.185.185,0,0,1-.089.053.842.842,0,0,1-.164.033,2.786,2.786,0,0,1-.524,0,.844.844,0,0,1-.166-.033.172.172,0,0,1-.086-.053.12.12,0,0,1-.025-.074V183.2a.329.329,0,0,1,.092-.261.337.337,0,0,1,.228-.08h1.377q.21,0,.345.008t.247.02a2.239,2.239,0,0,1,.578.156,1.385,1.385,0,0,1,.436.29,1.2,1.2,0,0,1,.273.423,1.548,1.548,0,0,1,.095.561,1.643,1.643,0,0,1-.068.487,1.246,1.246,0,0,1-.2.393,1.309,1.309,0,0,1-.325.3,1.757,1.757,0,0,1-.44.206,1.229,1.229,0,0,1,.224.14,1.179,1.179,0,0,1,.2.2,1.924,1.924,0,0,1,.175.267,3.505,3.505,0,0,1,.16.339l.448,1.048q.062.156.082.228A.444.444,0,0,1,395.017,188.035Zm-1.394-3.61a.789.789,0,0,0-.119-.444.65.65,0,0,0-.391-.255,1.508,1.508,0,0,0-.187-.033,2.612,2.612,0,0,0-.29-.012h-.485v1.509h.551a1.325,1.325,0,0,0,.4-.055.806.806,0,0,0,.288-.156.642.642,0,0,0,.173-.241A.814.814,0,0,0,393.623,184.425Z" transform="translate(-370.578 -182.759)"/><path className="a" d="M421.735,187.647a1.441,1.441,0,0,1,.062.234.141.141,0,0,1-.033.129.269.269,0,0,1-.16.053q-.115.01-.317.01t-.327-.006a.815.815,0,0,1-.179-.025.164.164,0,0,1-.086-.052.277.277,0,0,1-.041-.086l-.358-1.069h-2l-.337,1.04a.335.335,0,0,1-.043.1.178.178,0,0,1-.086.062.629.629,0,0,1-.168.031q-.109.008-.286.008a2.729,2.729,0,0,1-.3-.012.225.225,0,0,1-.148-.059.161.161,0,0,1-.029-.134,1.351,1.351,0,0,1,.062-.23l1.641-4.72a.409.409,0,0,1,.057-.113.2.2,0,0,1,.1-.066.821.821,0,0,1,.2-.029q.128-.006.337-.006.243,0,.387.006a1.023,1.023,0,0,1,.224.029.214.214,0,0,1,.115.068.4.4,0,0,1,.06.123Zm-2.443-3.9h0l-.752,2.261h1.509Z" transform="translate(-392.144 -182.635)"/><path className="a" d="M453.61,187.6a1.773,1.773,0,0,1-.01.208.627.627,0,0,1-.031.14.179.179,0,0,1-.052.08.111.111,0,0,1-.072.025h-2.438a.336.336,0,0,1-.228-.08.329.329,0,0,1-.092-.261v-4.831a.114.114,0,0,1,.027-.074.187.187,0,0,1,.089-.053.867.867,0,0,1,.166-.033,2.82,2.82,0,0,1,.524,0,.873.873,0,0,1,.164.033.188.188,0,0,1,.088.053.116.116,0,0,1,.027.074v4.28h1.673a.118.118,0,0,1,.072.023.165.165,0,0,1,.052.074.556.556,0,0,1,.031.136A1.77,1.77,0,0,1,453.61,187.6Z" transform="translate(-420.352 -182.635)"/><path className="a" d="M473.784,186.1a1.644,1.644,0,0,1-.156.736,1.524,1.524,0,0,1-.424.528,1.846,1.846,0,0,1-.625.319,2.658,2.658,0,0,1-.765.107,2.719,2.719,0,0,1-.512-.045,2.9,2.9,0,0,1-.417-.109,1.806,1.806,0,0,1-.3-.134.878.878,0,0,1-.175-.123.307.307,0,0,1-.076-.154,1.4,1.4,0,0,1-.023-.29c0-.085,0-.156.008-.214a.618.618,0,0,1,.027-.14.154.154,0,0,1,.049-.076.118.118,0,0,1,.072-.023.344.344,0,0,1,.162.068,2.815,2.815,0,0,0,.269.15,2.422,2.422,0,0,0,.393.15,1.858,1.858,0,0,0,.528.068,1.214,1.214,0,0,0,.354-.047.786.786,0,0,0,.265-.134.566.566,0,0,0,.167-.214.681.681,0,0,0,.057-.284.5.5,0,0,0-.1-.31.979.979,0,0,0-.257-.23,2.675,2.675,0,0,0-.36-.189q-.2-.088-.415-.187a3.8,3.8,0,0,1-.415-.224,1.674,1.674,0,0,1-.36-.3,1.417,1.417,0,0,1-.257-.413,1.493,1.493,0,0,1-.1-.572,1.513,1.513,0,0,1,.142-.672,1.382,1.382,0,0,1,.382-.481,1.627,1.627,0,0,1,.568-.286,2.478,2.478,0,0,1,.693-.095,2.514,2.514,0,0,1,.378.029,2.563,2.563,0,0,1,.354.078,1.967,1.967,0,0,1,.292.111.686.686,0,0,1,.169.1.306.306,0,0,1,.055.07.349.349,0,0,1,.025.076.809.809,0,0,1,.014.119c0,.048,0,.108,0,.179s0,.147-.006.2a.725.725,0,0,1-.021.136.161.161,0,0,1-.041.078.1.1,0,0,1-.072.025.341.341,0,0,1-.144-.058q-.1-.057-.243-.125a2.356,2.356,0,0,0-.333-.123,1.476,1.476,0,0,0-.415-.055.989.989,0,0,0-.308.043.636.636,0,0,0-.22.119.468.468,0,0,0-.131.183.6.6,0,0,0-.043.226.5.5,0,0,0,.1.306.923.923,0,0,0,.259.23,2.788,2.788,0,0,0,.368.189q.206.088.419.187a4.12,4.12,0,0,1,.419.224,1.7,1.7,0,0,1,.366.3,1.407,1.407,0,0,1,.259.411A1.439,1.439,0,0,1,473.784,186.1Z" transform="translate(-436.734 -182.281)"/></g><g transform="translate(-7880.425 -11603.576)"><path className="a" d="M370.582,258.387l.1-.23a3.782,3.782,0,0,1,.8-1.342.574.574,0,0,1-.046-.226,15,15,0,0,1,.5-1.844l.079-.244.079.244a15.023,15.023,0,0,1,.5,1.844.573.573,0,0,1-.046.226,3.787,3.787,0,0,1,.8,1.342l.1.23-.215-.127a2.331,2.331,0,0,0-.785-.317.574.574,0,0,0-.868,0,2.325,2.325,0,0,0-.785.317Zm1.434-.957.072.132a.412.412,0,0,0,.361.216,1.779,1.779,0,0,1,.656.222c-.262-.581-.552-1.051-.656-1.051l-.02,0-.164.007.092-.136a.413.413,0,0,0,.072-.234,12,12,0,0,0-.414-1.545,12.012,12.012,0,0,0-.415,1.545.409.409,0,0,0,.073.233l.093.136-.183-.008h0c-.106,0-.395.47-.657,1.051a1.771,1.771,0,0,1,.655-.222.415.415,0,0,0,.362-.216Z" transform="translate(-365.264 -254.501)"/><path className="a" d="M351.87,318.836h-13.5l4.009-.947,5.5,0Zm-12.082-.165h10.668l-2.6-.617h-5.458Z" transform="translate(-338.374 -307.423)"/><path className="a" d="M361.269,283.43h-5.643v-.4a3.14,3.14,0,0,1-1.291-2.717c0-1.634.963-2.963,2.147-2.963a1.579,1.579,0,0,1,.356.044l.137.032-.094.1a3.946,3.946,0,0,0-.923,2.627,4.042,4.042,0,0,0,.8,2.483h.286a3.735,3.735,0,0,1-.864-2.483c0-1.752,1.032-3.177,2.3-3.177s2.3,1.425,2.3,3.177a3.734,3.734,0,0,1-.864,2.483h.285a4.036,4.036,0,0,0,.8-2.483,3.945,3.945,0,0,0-.923-2.627l-.094-.1.137-.032a1.577,1.577,0,0,1,.357-.044c1.184,0,2.147,1.329,2.147,2.963a3.113,3.113,0,0,1-1.365,2.757Zm-5.478-.165H361.1v-.3l.045-.023a2.92,2.92,0,0,0,1.319-2.633c0-1.543-.889-2.8-1.982-2.8a1.248,1.248,0,0,0-.182.014,4.393,4.393,0,0,1,.005,5.245l-.025.03h-.768l.152-.143a3.469,3.469,0,0,0,.952-2.505c0-1.661-.958-3.012-2.135-3.012s-2.136,1.351-2.136,3.012a3.47,3.47,0,0,0,.952,2.505l.151.143h-.769l-.025-.03a4.394,4.394,0,0,1,.006-5.245,1.232,1.232,0,0,0-.182-.014c-1.093,0-1.982,1.255-1.982,2.8a2.948,2.948,0,0,0,1.249,2.6l.042.024Z" transform="translate(-351.7 -273.268)"/><path className="a" d="M377.106,280.714a.44.44,0,1,1,.433-.527h0a.441.441,0,0,1-.345.518A.447.447,0,0,1,377.106,280.714Zm0-.716a.275.275,0,1,0,.27.221A.275.275,0,0,0,377.107,280Z" transform="translate(-370.344 -275.65)"/><path className="a" d="M377.106,288.047a.44.44,0,1,1,.432-.527h0a.441.441,0,0,1-.432.527Zm0-.715a.275.275,0,0,0-.27.329.275.275,0,1,0,.27-.329Z" transform="translate(-370.344 -281.773)"/><path className="a" d="M377.106,294.8a.44.44,0,1,1,.432-.527h0a.441.441,0,0,1-.432.527Zm0-.715a.275.275,0,0,0-.27.329.275.275,0,1,0,.27-.329Z" transform="translate(-370.344 -287.408)"/><path className="a" d="M377.106,301.3a.44.44,0,1,1,.432-.527h0a.44.44,0,0,1-.432.527Zm0-.715a.275.275,0,0,0-.27.329.275.275,0,1,0,.27-.329Z" transform="translate(-370.344 -292.835)"/><path className="a" d="M377.106,308.214a.441.441,0,0,1-.431-.354.44.44,0,1,1,.863-.172h0a.441.441,0,0,1-.345.518A.449.449,0,0,1,377.106,308.214Zm0-.716a.291.291,0,0,0-.054.005.276.276,0,1,0,.054-.005Z" transform="translate(-370.344 -298.61)"/></g><path className="a" d="M299.456,252.932l.406-.941a12.624,12.624,0,0,1,3.206-4.187c.616-.522,1.14-.922,1.561-1.244,1.039-.8,1.469-1.125,1.544-1.84a10.913,10.913,0,0,0,.05-1.647l-10.459-.081-7.609.08a10.879,10.879,0,0,0,.049,1.647c.074.715.5,1.045,1.544,1.84.421.322.945.723,1.561,1.244a11.574,11.574,0,0,1,3.107,4.134l.383.965-1.82-1.187a33.659,33.659,0,0,0-7.209-3.094,23.424,23.424,0,0,0-2.741-.543,2.936,2.936,0,0,1-1.651-.525c-.677-.625-.273-1.846-.225-1.983l.085-.243,3.254.3c.022-1.664.3-8.613,3.43-13.883a27.165,27.165,0,0,1,9.091-8.91l.154-.085.022.011.021-.011.154.084a27.163,27.163,0,0,1,9.091,8.91c3.125,5.27,3.409,12.218,3.43,13.883l3.254-.3.085.243c.048.137.451,1.359-.225,1.983a2.936,2.936,0,0,1-1.651.525,23.426,23.426,0,0,0-2.741.543,33.658,33.658,0,0,0-7.209,3.094c-.928.605-1.052.681-1.063.688Zm-3.693-10.6,11.06.086.034.289a10.286,10.286,0,0,1-.027,2.081c-.1,1-.705,1.46-1.8,2.3-.415.318-.932.713-1.536,1.224a12.174,12.174,0,0,0-2.418,2.831,34.776,34.776,0,0,1,7.364-3.155,23.968,23.968,0,0,1,2.812-.557,2.632,2.632,0,0,0,1.3-.357c.223-.206.193-.689.117-1.034l-3.451.319.007-.369c0-.08.12-8.069-3.339-13.9a26.489,26.489,0,0,0-8.7-8.586,26.488,26.488,0,0,0-8.7,8.586c-3.462,5.837-3.34,13.821-3.339,13.9l.008.37-3.45-.319c-.072.328-.116.819.117,1.034a2.631,2.631,0,0,0,1.3.357,23.957,23.957,0,0,1,2.812.557,35.014,35.014,0,0,1,7.3,3.116,11.347,11.347,0,0,0-2.357-2.793c-.6-.511-1.121-.906-1.536-1.224-1.094-.837-1.7-1.3-1.8-2.3a10.3,10.3,0,0,1-.027-2.081l.034-.288Zm10.223-2.42H288.392l.067-.387a22.041,22.041,0,0,1,3.273-7.836,21.493,21.493,0,0,1,5.275-5.031l.182-.12.182.12a21.492,21.492,0,0,1,5.275,5.031,22.045,22.045,0,0,1,3.273,7.836Zm-16.8-.66h16a21.913,21.913,0,0,0-3.086-7.189,20.91,20.91,0,0,0-4.912-4.73,20.907,20.907,0,0,0-4.913,4.73A21.876,21.876,0,0,0,289.19,239.251Z" transform="translate(-8170.891 -11831.57)"/><g transform="translate(-7865.683 -11614.391)"><path className="a" d="M430.166,207.344a.331.331,0,0,1-.31-.216,19.793,19.793,0,0,0-1.516-3.223c-.191-.323-.4-.655-.624-.987a.33.33,0,0,1,.128-.48c.476-.235,2.2-1.1,4.441-2.387a59.173,59.173,0,0,0,8.861-6.125,19.3,19.3,0,0,0,3.835-4.751.33.33,0,0,1,.613.075c.049.2,1.194,4.869.492,7.325-.521,1.823-2.507,3.7-6.855,6.462a41.219,41.219,0,0,1-8.964,4.289A.33.33,0,0,1,430.166,207.344Zm-1.695-4.48c.154.237.3.473.437.7a20.193,20.193,0,0,1,1.454,3.032,40.986,40.986,0,0,0,8.514-4.119c4.142-2.636,6.109-4.456,6.574-6.086.488-1.707-.024-4.732-.319-6.175a20.224,20.224,0,0,1-3.546,4.2,59.828,59.828,0,0,1-8.971,6.2C430.729,201.708,429.2,202.5,428.471,202.864Z" transform="translate(-427.66 -189)"/><path className="a" d="M442.448,240.134c-.118,0-.26-.062-.386-.287a.322.322,0,0,1-.036-.1,27.821,27.821,0,0,0-1.171-4.221.33.33,0,0,1,.209-.429,40.469,40.469,0,0,0,8.813-4.218c.33-.21.645-.415.949-.615l.027-.016a4.974,4.974,0,0,0,.744-.5l.019-.014c2.946-2.023,4.438-3.546,4.836-4.94a5.629,5.629,0,0,0,.183-1.181.332.332,0,0,1,.051-.158c.114-.178.177-.281.178-.282a.33.33,0,0,1,.593.064,20.4,20.4,0,0,1,1.019,5.659c.047,2.471-1.676,4.813-5.268,7.162-2.872,1.878-10.343,3.971-10.659,4.06A.361.361,0,0,1,442.448,240.134Zm-.857-4.513a28.655,28.655,0,0,1,1.04,3.788c1.372-.395,7.722-2.273,10.214-3.9,3.386-2.214,5.012-4.372,4.969-6.6a19.1,19.1,0,0,0-.641-4.3q-.038.191-.087.362c-.449,1.571-1.971,3.156-5.088,5.3a5.655,5.655,0,0,1-.821.553c-.3.2-.617.4-.945.613A41.678,41.678,0,0,1,441.591,235.621Z" transform="translate(-438.659 -217.401)"/><path className="a" d="M448.849,295.316a.33.33,0,0,1-.329-.3c-.112-1.174-.282-2.336-.5-3.452a.33.33,0,0,1,.533-.32c1.205-.345,7.747-2.263,10.285-3.922.438-.286.852-.575,1.229-.858l1.889-1.324a.33.33,0,0,1,.518.238l.013.128c.082.765.332,3.093-.6,4.63-1.156,1.9-4.7,3.167-7.464,3.891-2.871.751-4.81,1.146-5.51,1.281A.327.327,0,0,1,448.849,295.316Zm-.1-3.44c.163.885.295,1.8.392,2.715.885-.178,2.653-.558,5.114-1.2,3.8-.993,6.242-2.236,7.066-3.594a6.775,6.775,0,0,0,.551-3.789l-1.419.994c-.38.285-.806.582-1.255.876C456.557,289.6,450.033,291.511,448.749,291.877Z" transform="translate(-444.65 -269.218)"/><path className="a" d="M451.569,335.262a.33.33,0,0,1-.33-.332c0-.3,0-1.393-.15-2.929a.33.33,0,0,1,.266-.356c.694-.134,2.616-.526,5.468-1.272a29.175,29.175,0,0,0,3.073-.971.291.291,0,0,1,.127-.022c.519.013.818.049.831.05a.33.33,0,0,1,.288.288,3.08,3.08,0,0,1-1.017,2.24,9.027,9.027,0,0,1-3.534,2.451,14.568,14.568,0,0,1-5.019.852Zm.2-3.026c.093,1.062.118,1.892.124,2.359a13.636,13.636,0,0,0,4.438-.795,8.315,8.315,0,0,0,3.3-2.282,3.224,3.224,0,0,0,.827-1.458c-.105-.007-.236-.013-.388-.018a30.08,30.08,0,0,1-3.081.97C454.452,331.676,452.643,332.062,451.773,332.236Z" transform="translate(-447.219 -306.201)"/></g><g transform="translate(-7901.596 -11614.391)"><path className="a" d="M233.349,207.344a.327.327,0,0,1-.1-.016,41.192,41.192,0,0,1-8.964-4.289c-4.348-2.767-6.334-4.639-6.855-6.462-.7-2.457.443-7.128.492-7.325a.33.33,0,0,1,.612-.075,19.358,19.358,0,0,0,3.835,4.751,59.152,59.152,0,0,0,8.861,6.125c2.238,1.286,3.965,2.152,4.441,2.387a.33.33,0,0,1,.128.48c-.222.331-.432.663-.624.987a19.766,19.766,0,0,0-1.515,3.223A.331.331,0,0,1,233.349,207.344ZM218.383,190.22c-.3,1.443-.807,4.468-.32,6.175.466,1.63,2.432,3.45,6.574,6.086a40.968,40.968,0,0,0,8.514,4.119,20.161,20.161,0,0,1,1.454-3.032c.138-.232.284-.468.437-.7-.731-.368-2.258-1.156-4.143-2.239a59.843,59.843,0,0,1-8.971-6.2A20.22,20.22,0,0,1,218.383,190.22Z" transform="translate(-216.039 -189.001)"/><path className="a" d="M226.187,240.133a.366.366,0,0,1-.1-.015c-.314-.087-7.785-2.181-10.657-4.059-3.592-2.349-5.315-4.692-5.268-7.162a20.386,20.386,0,0,1,1.019-5.659.33.33,0,0,1,.593-.064s.064.1.178.282a.329.329,0,0,1,.051.157,5.641,5.641,0,0,0,.183,1.181c.4,1.394,1.89,2.918,4.836,4.94l.019.014a4.964,4.964,0,0,0,.744.5l.027.016c.3.2.618.4.949.615a40.449,40.449,0,0,0,8.812,4.218.331.331,0,0,1,.209.429,27.812,27.812,0,0,0-1.171,4.221.332.332,0,0,1-.036.1C226.447,240.071,226.306,240.133,226.187,240.133Zm-14.725-15.519a19.109,19.109,0,0,0-.641,4.3c-.043,2.225,1.583,4.383,4.969,6.6,2.492,1.629,8.846,3.508,10.214,3.9a28.682,28.682,0,0,1,1.04-3.788,41.656,41.656,0,0,1-8.64-4.182c-.329-.21-.643-.413-.945-.613a5.616,5.616,0,0,1-.822-.553c-3.117-2.141-4.639-3.725-5.088-5.3Q211.5,224.805,211.462,224.614Z" transform="translate(-210.16 -217.401)"/><path className="a" d="M235.32,295.316a.327.327,0,0,1-.063-.006c-.7-.135-2.639-.531-5.51-1.281-2.767-.723-6.307-1.986-7.464-3.891-.933-1.536-.683-3.864-.6-4.629l.013-.129a.33.33,0,0,1,.518-.238l1.881,1.318q.578.433,1.238.865c2.539,1.66,9.086,3.579,10.285,3.922a.33.33,0,0,1,.533.32c-.222,1.117-.391,2.278-.5,3.452a.33.33,0,0,1-.329.3Zm-13.023-9.31a6.776,6.776,0,0,0,.551,3.789c.825,1.358,3.268,2.6,7.066,3.594,2.461.644,4.229,1.024,5.114,1.2.1-.919.229-1.829.392-2.715-1.277-.364-7.807-2.273-10.448-4-.451-.295-.876-.592-1.264-.882Z" transform="translate(-219.703 -269.218)"/><path className="a" d="M255.392,335.263h0a14.566,14.566,0,0,1-5.019-.852,9.025,9.025,0,0,1-3.534-2.451,3.082,3.082,0,0,1-1.018-2.24.33.33,0,0,1,.288-.289c.013,0,.312-.037.831-.05a.3.3,0,0,1,.127.022,29.214,29.214,0,0,0,3.073.971c2.852.746,4.774,1.138,5.469,1.272a.33.33,0,0,1,.266.356c-.147,1.539-.152,2.631-.15,2.929a.33.33,0,0,1-.33.333Zm-8.889-5.2a3.235,3.235,0,0,0,.825,1.459,8.318,8.318,0,0,0,3.3,2.282,13.636,13.636,0,0,0,4.438.795c.006-.467.031-1.3.124-2.359-.869-.174-2.679-.56-5.217-1.224a30.054,30.054,0,0,1-3.081-.97C246.738,330.047,246.609,330.054,246.5,330.06Z" transform="translate(-239.927 -306.202)"/></g><text className="b" transform="translate(-7910 -11571)"><tspan x="0" y="0">Travel&amp; Transportation</tspan></text></g></svg>