<svg xmlns="http://www.w3.org/2000/svg" width="12.591" height="14.389" viewBox="0 0 12.591 14.389"><defs><style>.a{fill:#ee405e;}</style></defs><path className="a" d="M0,13.04a1.349,1.349,0,0,0,1.349,1.349h9.893a1.349,1.349,0,0,0,1.349-1.349V5.4H0ZM8.993,7.532a.338.338,0,0,1,.337-.337h1.124a.338.338,0,0,1,.337.337V8.656a.338.338,0,0,1-.337.337H9.331a.338.338,0,0,1-.337-.337Zm0,3.6a.338.338,0,0,1,.337-.337h1.124a.338.338,0,0,1,.337.337v1.124a.338.338,0,0,1-.337.337H9.331a.338.338,0,0,1-.337-.337Zm-3.6-3.6a.338.338,0,0,1,.337-.337H6.857a.338.338,0,0,1,.337.337V8.656a.338.338,0,0,1-.337.337H5.733A.338.338,0,0,1,5.4,8.656Zm0,3.6a.338.338,0,0,1,.337-.337H6.857a.338.338,0,0,1,.337.337v1.124a.338.338,0,0,1-.337.337H5.733a.338.338,0,0,1-.337-.337Zm-3.6-3.6a.338.338,0,0,1,.337-.337H3.26a.338.338,0,0,1,.337.337V8.656a.338.338,0,0,1-.337.337H2.136A.338.338,0,0,1,1.8,8.656Zm0,3.6a.338.338,0,0,1,.337-.337H3.26a.338.338,0,0,1,.337.337v1.124a.338.338,0,0,1-.337.337H2.136a.338.338,0,0,1-.337-.337ZM11.242,1.8H9.893V.45A.451.451,0,0,0,9.443,0h-.9a.451.451,0,0,0-.45.45V1.8H4.5V.45A.451.451,0,0,0,4.047,0h-.9A.451.451,0,0,0,2.7.45V1.8H1.349A1.349,1.349,0,0,0,0,3.148V4.5H12.591V3.148A1.349,1.349,0,0,0,11.242,1.8Z"/></svg>