<svg xmlns="http://www.w3.org/2000/svg" width="18.4" height="18.4" viewBox="0 0 18.4 18.4"><defs><style>.a{fill:#a6a8ac;}</style></defs><path className="a" d="M210.522,208.761A1.761,1.761,0,1,1,208.761,207,1.761,1.761,0,0,1,210.522,208.761Zm0,0" transform="translate(-199.561 -199.561)"/><path className="a" d="M143.934,136.7a1.749,1.749,0,0,0-1-1,2.923,2.923,0,0,0-.981-.182c-.557-.025-.724-.031-2.135-.031s-1.578.005-2.135.031a2.925,2.925,0,0,0-.981.182,1.75,1.75,0,0,0-1,1,2.924,2.924,0,0,0-.182.981c-.025.557-.031.724-.031,2.135s.005,1.578.031,2.135a2.923,2.923,0,0,0,.182.981,1.749,1.749,0,0,0,1,1,2.92,2.92,0,0,0,.981.182c.557.025.724.031,2.135.031s1.578-.005,2.135-.031a2.92,2.92,0,0,0,.981-.182,1.749,1.749,0,0,0,1-1,2.925,2.925,0,0,0,.182-.981c.025-.557.031-.724.031-2.135s-.005-1.578-.031-2.135A2.919,2.919,0,0,0,143.934,136.7Zm-4.118,5.828a2.713,2.713,0,1,1,2.713-2.713A2.713,2.713,0,0,1,139.816,142.532Zm2.82-4.9a.634.634,0,1,1,.634-.634A.634.634,0,0,1,142.636,137.633Zm0,0" transform="translate(-130.616 -130.62)"/><path className="a" d="M9.2,0a9.2,9.2,0,1,0,9.2,9.2A9.2,9.2,0,0,0,9.2,0Zm5.251,11.378a3.876,3.876,0,0,1-.246,1.282,2.7,2.7,0,0,1-1.545,1.545,3.879,3.879,0,0,1-1.282.246c-.563.026-.743.032-2.178.032s-1.615-.006-2.178-.032a3.879,3.879,0,0,1-1.282-.246A2.7,2.7,0,0,1,4.195,12.66a3.875,3.875,0,0,1-.246-1.282c-.026-.563-.032-.743-.032-2.178s.006-1.615.032-2.178A3.876,3.876,0,0,1,4.194,5.74,2.7,2.7,0,0,1,5.74,4.195a3.879,3.879,0,0,1,1.282-.246c.563-.026.743-.032,2.178-.032s1.615.006,2.178.032a3.88,3.88,0,0,1,1.282.245A2.7,2.7,0,0,1,14.205,5.74a3.875,3.875,0,0,1,.246,1.282c.026.563.032.743.032,2.178S14.477,10.814,14.451,11.378Zm0,0"/></svg>