<svg xmlns="http://www.w3.org/2000/svg" width="24.488" height="24.488" viewBox="0 0 24.488 24.488"><defs><style>.a{fill:#ef5266;}</style></defs><path className="a" d="M23.053,12.244A10.855,10.855,0,0,0,12.244,1.435c-.231,0-.508.008-.736.022a7.2,7.2,0,0,0-10.052,10.1c-.014.228-.022.457-.022.688A10.855,10.855,0,0,0,12.244,23.053c.231,0,.46-.008.688-.022a7.211,7.211,0,0,0,11.556-5.718,7.329,7.329,0,0,0-1.457-4.382c.014-.228.022-.457.022-.688ZM12.244,19.466a7.141,7.141,0,0,1-3.888-1.082c-.915-.611-1.721-1.445-1.244-2.437a1.49,1.49,0,0,1,2.4-.316,3.982,3.982,0,0,0,2.817.944c1.066,0,2.782-.56,2.782-1.414s-1.711-1.483-2.87-1.483c-3.55,0-5.787-2.151-5.787-4.3,0-2.092,2.027-4.219,5.784-4.22a7.113,7.113,0,0,1,3.843,1c.916.61,1.722,1.445,1.245,2.437a1.474,1.474,0,0,1-2.4.315,3.848,3.848,0,0,0-2.769-.942c-1.065,0-2.83.56-2.83,1.414s1.759,1.435,2.918,1.435c3.55,0,5.739,2.2,5.739,4.352s-2.2,4.3-5.739,4.3Zm0,0"/></svg>