<svg xmlns="http://www.w3.org/2000/svg" width="10.822" height="10.822" viewBox="0 0 10.822 10.822"><defs><style>.a{fill:#ef5266;}</style></defs><path className="a" d="M10.188,5.411A4.8,4.8,0,0,0,5.411.634c-.1,0-.225,0-.325.01A3.18,3.18,0,0,0,.644,5.107c-.006.1-.01.2-.01.3a4.8,4.8,0,0,0,4.777,4.777c.1,0,.2,0,.3-.01a3.187,3.187,0,0,0,5.107-2.527,3.239,3.239,0,0,0-.644-1.936c.006-.1.01-.2.01-.3ZM5.411,8.6a3.156,3.156,0,0,1-1.718-.478c-.4-.27-.761-.639-.55-1.077A.658.658,0,0,1,4.2,6.908a1.76,1.76,0,0,0,1.245.417c.471,0,1.23-.248,1.23-.625s-.756-.655-1.268-.655c-1.569,0-2.558-.95-2.558-1.9,0-.924.9-1.864,2.556-1.865a3.144,3.144,0,0,1,1.7.441c.4.27.761.639.55,1.077A.652.652,0,0,1,6.6,3.935a1.7,1.7,0,0,0-1.224-.416c-.471,0-1.251.248-1.251.625s.777.634,1.289.634c1.569,0,2.536.972,2.536,1.923S6.975,8.6,5.411,8.6Zm0,0" transform="translate(0 0)"/></svg>