<svg xmlns="http://www.w3.org/2000/svg" width="18.446" height="18.446" viewBox="0 0 18.446 18.446"><defs><style>.a{fill:#a6a8ac;}</style></defs><path className="a" d="M9.223,0a9.223,9.223,0,1,0,9.223,9.223A9.224,9.224,0,0,0,9.223,0Zm4.211,7.191q.006.136.006.274a5.982,5.982,0,0,1-6.023,6.023h0a5.992,5.992,0,0,1-3.245-.951,4.306,4.306,0,0,0,.5.029,4.248,4.248,0,0,0,2.629-.906,2.119,2.119,0,0,1-1.978-1.47,2.11,2.11,0,0,0,.956-.036,2.117,2.117,0,0,1-1.7-2.075c0-.01,0-.018,0-.027a2.1,2.1,0,0,0,.959.265A2.119,2.119,0,0,1,4.89,5.49,6.01,6.01,0,0,0,9.254,7.7a2.118,2.118,0,0,1,3.607-1.931,4.246,4.246,0,0,0,1.344-.514,2.125,2.125,0,0,1-.931,1.171,4.222,4.222,0,0,0,1.216-.333,4.3,4.3,0,0,1-1.056,1.1Zm0,0"/></svg>