<svg xmlns="http://www.w3.org/2000/svg" width="26.721" height="32.028" viewBox="0 0 26.721 32.028"><defs><style>.a{fill:#ee405e;}</style></defs><g transform="translate(0 0)"><path className="a" d="M94.746,15.428a7.464,7.464,0,0,0,5.454-2.26,7.464,7.464,0,0,0,2.26-5.454A7.465,7.465,0,0,0,100.2,2.26a7.712,7.712,0,0,0-10.908,0,7.464,7.464,0,0,0-2.26,5.454,7.464,7.464,0,0,0,2.26,5.454A7.466,7.466,0,0,0,94.746,15.428Zm0,0" transform="translate(-81.588)"/><path className="a" d="M26.656,256.473a19.053,19.053,0,0,0-.26-2.024,15.944,15.944,0,0,0-.5-2.035,10.05,10.05,0,0,0-.836-1.9,7.16,7.16,0,0,0-1.261-1.644,5.561,5.561,0,0,0-1.812-1.138,6.262,6.262,0,0,0-2.313-.419,2.348,2.348,0,0,0-1.254.532c-.376.245-.815.529-1.306.842a7.484,7.484,0,0,1-1.69.745,6.563,6.563,0,0,1-4.134,0A7.466,7.466,0,0,1,9.6,248.69c-.486-.311-.926-.594-1.307-.843a2.345,2.345,0,0,0-1.253-.532,6.254,6.254,0,0,0-2.313.419,5.556,5.556,0,0,0-1.812,1.138,7.161,7.161,0,0,0-1.261,1.644,10.07,10.07,0,0,0-.836,1.9,15.983,15.983,0,0,0-.5,2.035,18.985,18.985,0,0,0-.26,2.024c-.043.613-.064,1.249-.064,1.891a5.318,5.318,0,0,0,1.579,4.023,5.686,5.686,0,0,0,4.07,1.485H21.071a5.685,5.685,0,0,0,4.07-1.485,5.316,5.316,0,0,0,1.58-4.024c0-.645-.022-1.282-.065-1.892Zm0,0" transform="translate(0 -231.845)"/></g></svg>