<svg xmlns="http://www.w3.org/2000/svg" width="18.446" height="18.446" viewBox="0 0 18.446 18.446"><defs><style>.a{fill:#a6a8ac;}</style></defs><path className="a" d="M9.223,0a9.223,9.223,0,1,0,9.223,9.223A9.224,9.224,0,0,0,9.223,0Zm.2,14.593h0a5.518,5.518,0,0,1-2.638-.672l-2.926.767.783-2.86a5.52,5.52,0,1,1,4.783,2.764Zm0,0"/><path className="a" d="M138.661,124.469a4.589,4.589,0,0,0-3.889,7.027l.109.174-.464,1.693,1.736-.455.168.1a4.581,4.581,0,0,0,2.335.639h0a4.588,4.588,0,0,0,0-9.177Zm2.7,6.558a1.421,1.421,0,0,1-.931.656,1.893,1.893,0,0,1-.869-.055,7.962,7.962,0,0,1-.786-.29,6.148,6.148,0,0,1-2.356-2.082,2.681,2.681,0,0,1-.563-1.426,1.546,1.546,0,0,1,.483-1.15.507.507,0,0,1,.368-.173c.092,0,.184,0,.264,0s.2-.032.31.237.391.955.425,1.024a.254.254,0,0,1,.012.242,3.932,3.932,0,0,1-.345.472c-.061.076-.141.143-.061.281a4.157,4.157,0,0,0,.767.955,3.77,3.77,0,0,0,1.109.684c.138.069.218.057.3-.034s.345-.4.437-.541.184-.115.31-.069.8.38.942.449.23.1.264.161a1.15,1.15,0,0,1-.08.656Zm0,0" transform="translate(-129.241 -119.985)"/></svg>