<svg id="whatsapp_1_" data-name="whatsapp (1)" xmlns="http://www.w3.org/2000/svg" width="21.721" height="21.721" viewBox="0 0 21.721 21.721">
  <path id="Path_808" data-name="Path 808" d="M10.861,0A10.861,10.861,0,1,0,21.721,10.861,10.862,10.862,0,0,0,10.861,0Zm.23,17.184h0a6.5,6.5,0,0,1-3.106-.791l-3.446.9.922-3.367a6.5,6.5,0,1,1,5.633,3.255Zm0,0" fill="#a6a8ac"/>
  <path id="Path_809" data-name="Path 809" d="M139.476,124.469a5.4,5.4,0,0,0-4.579,8.275l.128.2-.546,1.993,2.045-.536.2.117a5.394,5.394,0,0,0,2.75.753h0a5.4,5.4,0,0,0,0-10.806Zm3.178,7.723a1.674,1.674,0,0,1-1.1.772,2.229,2.229,0,0,1-1.023-.064,9.373,9.373,0,0,1-.926-.342,7.24,7.24,0,0,1-2.774-2.452,3.158,3.158,0,0,1-.663-1.68,1.821,1.821,0,0,1,.568-1.354.6.6,0,0,1,.433-.2c.108,0,.217,0,.311.006s.234-.038.365.279.46,1.124.5,1.205a.3.3,0,0,1,.014.285,4.63,4.63,0,0,1-.406.555c-.072.089-.166.169-.071.331a4.9,4.9,0,0,0,.9,1.125,4.439,4.439,0,0,0,1.306.806c.162.081.257.068.352-.041s.406-.474.514-.637.217-.135.365-.081.947.447,1.11.528.271.122.311.19a1.354,1.354,0,0,1-.095.772Zm0,0" transform="translate(-128.383 -119.188)" fill="#a6a8ac"/>
</svg>
