<svg xmlns="http://www.w3.org/2000/svg" width="10.311" height="10.311" viewBox="0 0 10.311 10.311"><defs><style>.a{fill:#ef5266;}</style></defs><path className="a" d="M5.157,0h0A5.152,5.152,0,0,0,.981,8.177L.339,10.092l1.982-.633A5.154,5.154,0,1,0,5.157,0Zm3,7.28a1.455,1.455,0,0,1-1.012.728c-.269.057-.621.1-1.806-.388A6.458,6.458,0,0,1,2.772,5.353,2.944,2.944,0,0,1,2.16,3.8a1.646,1.646,0,0,1,.527-1.255.749.749,0,0,1,.527-.185c.064,0,.121,0,.173.006.151.006.227.015.327.255.124.3.427,1.039.463,1.115a.307.307,0,0,1,.022.279.891.891,0,0,1-.167.237c-.076.088-.148.155-.224.249s-.148.169-.061.321a4.576,4.576,0,0,0,.836,1.039A3.79,3.79,0,0,0,5.793,6.6a.326.326,0,0,0,.363-.057,6.238,6.238,0,0,0,.4-.534.288.288,0,0,1,.37-.112c.139.048.876.412,1.027.488s.251.112.288.176A1.284,1.284,0,0,1,8.156,7.28Z"/></svg>